<svg width="300" height="300" viewBox="0 0 300 300" fill="none" xmlns="http://www.w3.org/2000/svg">
<path d="M203 150.5L202.999 150.664L202.995 150.829L202.988 150.993L202.979 151.157L202.967 151.322L202.953 151.486L202.936 151.65L202.917 151.814L202.894 151.979L202.87 152.143L202.842 152.307L202.812 152.471L202.78 152.636L202.744 152.8L202.707 152.964L202.666 153.128L202.623 153.292L202.578 153.457L202.53 153.621L202.479 153.785L202.426 153.949L202.37 154.113L202.311 154.277L202.25 154.441L202.187 154.605L202.121 154.769L202.052 154.933L201.981 155.097L201.907 155.261L201.83 155.425L201.751 155.589L201.67 155.752L201.586 155.916L201.499 156.08L201.41 156.244L201.319 156.407L201.224 156.571L201.128 156.735L201.029 156.898L200.927 157.062L200.823 157.225L200.716 157.389L200.607 157.552L200.495 157.715L200.381 157.878L200.265 158.042L200.146 158.205L200.024 158.368L199.9 158.531L199.774 158.694L199.645 158.857L199.514 159.02L199.38 159.183L199.244 159.346L199.105 159.508L198.964 159.671L198.821 159.834L198.675 159.996L198.527 160.159L198.377 160.321L198.224 160.483L198.069 160.645L197.911 160.808L197.751 160.97L197.589 161.132L197.424 161.294L197.258 161.455L197.088 161.617L196.917 161.779L196.743 161.94L196.567 162.102L196.389 162.263L196.208 162.425L196.025 162.586L195.84 162.747L195.653 162.908L195.464 163.069L195.272 163.23L195.078 163.39L194.882 163.551L194.683 163.712L194.483 163.872L194.28 164.032L194.076 164.192L193.869 164.352L193.66 164.512L193.448 164.672L193.235 164.832L193.02 164.991L192.802 165.151L192.583 165.31L192.361 165.469L192.137 165.628L191.912 165.787L191.684 165.946L191.454 166.105L191.223 166.263L190.989 166.421L190.753 166.579L190.515 166.737L190.276 166.895L190.034 167.053L189.791 167.211L189.545 167.368L189.298 167.525L189.049 167.682L188.798 167.839L188.545 167.996L188.29 168.152L188.033 168.309L187.775 168.465L187.514 168.621L187.252 168.776L186.988 168.932L186.723 169.087L186.455 169.243L186.186 169.398L185.915 169.552L185.643 169.707L185.369 169.861L185.093 170.015L184.815 170.169L184.536 170.323L184.255 170.477L183.972 170.63L183.688 170.783L183.402 170.936L183.115 171.088L182.826 171.24L182.535 171.393L182.243 171.544L181.95 171.696L181.654 171.847L181.358 171.998L181.06 172.149L180.76 172.3L180.459 172.45L180.157 172.6L179.853 172.75L179.548 172.899L179.241 173.048L178.933 173.197L178.624 173.346L178.313 173.494L178.001 173.642L177.688 173.789L177.373 173.937L177.057 174.084L176.74 174.231L176.422 174.377L176.102 174.523L175.781 174.669L175.459 174.814L175.136 174.959L174.812 175.104L174.486 175.248L174.159 175.392L173.832 175.536L173.503 175.679L173.173 175.822L172.842 175.965L172.51 176.107L172.177 176.249L171.842 176.391L171.507 176.532L171.171 176.672L170.834 176.813L170.496 176.952L170.157 177.092L169.818 177.231L169.477 177.37L169.135 177.508L168.793 177.646L168.449 177.783L168.105 177.92L167.76 178.056L167.415 178.193L167.068 178.328L166.721 178.463L166.373 178.598L166.024 178.732L165.675 178.866L165.325 178.999L164.974 179.132L164.623 179.264L164.271 179.396L163.918 179.528L163.565 179.658L163.211 179.789L162.857 179.919L162.502 180.048L162.146 180.177L161.79 180.305L161.434 180.433L161.077 180.56L160.719 180.686L160.361 180.812L160.003 180.938L159.644 181.063L159.285 181.187L158.926 181.311L158.566 181.434L158.206 181.557L157.846 181.679L157.485 181.801L157.124 181.922L156.763 182.042L156.401 182.162L156.039 182.281L155.678 182.399L155.315 182.517L154.953 182.634L154.591 182.751L154.228 182.867L153.865 182.982L153.502 183.096L153.139 183.21L152.777 183.323L152.413 183.436L152.05 183.548L151.687 183.659L151.324 183.77L150.961 183.879L150.598 183.989L150.235 184.097L149.872 184.205L149.509 184.312L149.147 184.418L148.784 184.523L148.422 184.628L148.059 184.732L147.697 184.835L147.335 184.938L146.974 185.04L146.612 185.14L146.251 185.241L145.89 185.34L145.529 185.439L145.169 185.536L144.809 185.633L144.449 185.73L144.09 185.825L143.731 185.919L143.372 186.013L143.014 186.106L142.656 186.198L142.299 186.289L141.942 186.38L141.585 186.469L141.229 186.558L140.874 186.646L140.519 186.732L140.164 186.818L139.81 186.903L139.457 186.988L139.104 187.071L138.752 187.153L138.401 187.235L138.05 187.315L137.7 187.395L137.35 187.474L137.001 187.551L136.653 187.628L136.305 187.704L135.958 187.779L135.612 187.853L135.267 187.926L134.923 187.998L134.579 188.069L134.236 188.139L133.894 188.208L133.553 188.276L133.212 188.343L132.873 188.409L132.534 188.474L132.196 188.537L131.859 188.6L131.524 188.662L131.189 188.723L130.855 188.783L130.522 188.841L130.189 188.899L129.858 188.955L129.528 189.011L129.199 189.065L128.871 189.119L128.545 189.171L128.219 189.222L127.894 189.272L127.57 189.321L127.248 189.368L126.927 189.415L126.606 189.461L126.287 189.505L125.969 189.548L125.653 189.59L125.337 189.631L125.023 189.671L124.71 189.709L124.398 189.747L124.087 189.783L123.778 189.818L123.47 189.852L123.163 189.885L122.858 189.916L122.554 189.946L122.251 189.975L121.95 190.003L121.65 190.03L121.351 190.055L121.054 190.079L120.758 190.102L120.463 190.124L120.17 190.144L119.879 190.163L119.588 190.181L119.3 190.198L119.012 190.213L118.727 190.227L118.442 190.24L118.16 190.251L117.878 190.261L117.599 190.27L117.32 190.278L117.044 190.284L116.769 190.289L116.495 190.293L116.223 190.295L115.953 190.296L115.684 190.296L115.417 190.294L115.151 190.291L114.887 190.287L114.625 190.281L114.365 190.274L114.106 190.265L113.848 190.255L113.593 190.244L113.339 190.232L113.087 190.218L112.836 190.202L112.588 190.186L112.341 190.167L112.095 190.148L111.852 190.127L111.61 190.105L111.37 190.081L111.132 190.056L110.895 190.029L110.661 190.001L110.428 189.972L110.197 189.941L109.968 189.909L109.74 189.875L109.515 189.84L109.291 189.803L109.069 189.765L108.849 189.725L108.631 189.684L108.415 189.642L108.201 189.598L107.988 189.553L107.778 189.506L107.569 189.458L107.362 189.408L107.157 189.357L106.954 189.304L106.753 189.25L106.554 189.194L106.357 189.137L106.162 189.078L105.969 189.018L105.777 188.956L105.588 188.893L105.401 188.828L105.215 188.762L105.032 188.694L104.85 188.625L104.671 188.554L104.494 188.482L104.318 188.408L104.145 188.333L103.974 188.256L103.804 188.178L103.637 188.098L103.471 188.016L103.308 187.934L103.147 187.849L102.988 187.763L102.831 187.676L102.675 187.587L102.522 187.496L102.371 187.404L102.222 187.31L102.076 187.215L101.931 187.118L101.788 187.02L101.647 186.92L101.509 186.819L101.372 186.716L101.238 186.611L101.105 186.505L100.975 186.398L100.847 186.288L100.721 186.178L100.597 186.066L100.475 185.952L100.355 185.837L100.237 185.72L100.122 185.601L100.008 185.481L99.8966 185.36L99.7873 185.237L99.6801 185.112L99.575 184.986L99.472 184.858L99.3711 184.729L99.2724 184.598L99.1757 184.466L99.0811 184.332L98.9887 184.197L98.8984 184.06L98.8101 183.921L98.724 183.781L98.64 183.639L98.5582 183.496L98.4784 183.352L98.4007 183.205L98.3252 183.058L98.2518 182.908L98.1804 182.757L98.1112 182.605L98.0441 182.451L97.9791 182.296L97.9162 182.139L97.8554 181.98L97.7968 181.821L97.7402 181.659L97.6857 181.496L97.6334 181.332L97.5831 181.166L97.5349 180.998L97.4888 180.829L97.4448 180.658L97.4029 180.486L97.3631 180.313L97.3254 180.138L97.2898 179.961L97.2562 179.783L97.2248 179.604L97.1954 179.423L97.168 179.241L97.1428 179.057L97.1196 178.871L97.0985 178.684L97.0794 178.496L97.0624 178.306L97.0474 178.115L97.0346 177.922L97.0237 177.728L97.0149 177.533L97.0081 177.336L97.0034 177.137L97.0007 176.938L97 176.736L97.0014 176.534L97.0048 176.33L97.0101 176.124L97.0175 175.917L97.0269 175.709L97.0383 175.499L97.0517 175.288L97.0671 175.076L97.0845 174.862L97.1039 174.647L97.1252 174.43L97.1485 174.212L97.1738 173.993L97.201 173.772L97.2302 173.55L97.2614 173.327L97.2945 173.102L97.3295 172.876L97.3664 172.649L97.4053 172.42L97.4461 172.19L97.4888 171.959L97.5335 171.727L97.58 171.493L97.6284 171.258L97.6787 171.022L97.7309 170.784L97.785 170.545L97.8409 170.305L97.8988 170.064L97.9584 169.821L98.0199 169.577L98.0833 169.332L98.1485 169.086L98.2155 168.839L98.2843 168.59L98.355 168.34L98.4274 168.089L98.5017 167.837L98.5777 167.584L98.6556 167.329L98.7352 167.074L98.8165 166.817L98.8997 166.559L98.9846 166.3L99.0712 166.04L99.1596 165.779L99.2497 165.516L99.3415 165.253L99.435 164.989L99.5303 164.723L99.6272 164.456L99.7258 164.189L99.8261 163.92L99.9281 163.65L100.032 163.38L100.137 163.108L100.244 162.835L100.353 162.561L100.463 162.287L100.575 162.011L100.688 161.734L100.803 161.457L100.92 161.178L101.038 160.898L101.158 160.618L101.279 160.337L101.402 160.055L101.526 159.771L101.652 159.487L101.78 159.203L101.909 158.917L102.039 158.63L102.171 158.343L102.305 158.055L102.44 157.766L102.576 157.476L102.714 157.185L102.854 156.894L102.994 156.601L103.137 156.309L103.28 156.015L103.425 155.72L103.572 155.425L103.72 155.129L103.869 154.833L104.02 154.536L104.172 154.238L104.325 153.939L104.48 153.64L104.636 153.34L104.793 153.039L104.951 152.738L105.111 152.437L105.273 152.134L105.435 151.831L105.599 151.528L105.764 151.224L105.93 150.919L106.098 150.614L106.266 150.309L106.436 150.003L106.607 149.696L106.78 149.389L106.953 149.082L107.128 148.774L107.304 148.465L107.481 148.156L107.659 147.847L107.838 147.538L108.018 147.228L108.2 146.917L108.383 146.606L108.566 146.295L108.751 145.984L108.937 145.672L109.124 145.36L109.311 145.048L109.5 144.735L109.69 144.422L109.881 144.109L110.073 143.796L110.266 143.482L110.46 143.169L110.655 142.855L110.851 142.541L111.047 142.226L111.245 141.912L111.444 141.597L111.643 141.283L111.844 140.968L112.045 140.653L112.247 140.338L112.45 140.023L112.654 139.708L112.859 139.393L113.064 139.078L113.271 138.762L113.478 138.447L113.686 138.132L113.895 137.817L114.104 137.502L114.315 137.187L114.526 136.872L114.737 136.557L114.95 136.243L115.163 135.928L115.377 135.614L115.592 135.3L115.807 134.986L116.023 134.672L116.24 134.358L116.457 134.045L116.675 133.731L116.894 133.418L117.113 133.106L117.333 132.793L117.553 132.481L117.774 132.169L117.996 131.858L118.218 131.546L118.441 131.236L118.664 130.925L118.888 130.615L119.112 130.305L119.337 129.996L119.562 129.687L119.788 129.379L120.014 129.071L120.241 128.763L120.468 128.456L120.696 128.15L120.924 127.844L121.152 127.538L121.381 127.233L121.611 126.929L121.84 126.625L122.07 126.322L122.301 126.02L122.532 125.718L122.763 125.416L122.994 125.116L123.226 124.816L123.458 124.516L123.691 124.218L123.924 123.92L124.157 123.623L124.39 123.326L124.623 123.031L124.857 122.736L125.091 122.442L125.326 122.149L125.56 121.856L125.795 121.565L126.03 121.274L126.265 120.984L126.5 120.695L126.736 120.407L126.971 120.12L127.207 119.834L127.443 119.548L127.679 119.264L127.915 118.981L128.152 118.698L128.388 118.417L128.625 118.136L128.861 117.857L129.098 117.579L129.335 117.302L129.572 117.026L129.808 116.75L130.045 116.477L130.282 116.204L130.519 115.932L130.756 115.661L130.993 115.392L131.23 115.124L131.467 114.857L131.704 114.591L131.94 114.327L132.177 114.063L132.414 113.801L132.651 113.54L132.887 113.281L133.124 113.023L133.36 112.766L133.596 112.51L133.833 112.256L134.069 112.003L134.305 111.751L134.54 111.501L134.776 111.252L135.012 111.005L135.247 110.759L135.482 110.515L135.717 110.272L135.952 110.03L136.187 109.79L136.421 109.551L136.655 109.314L136.889 109.078L137.123 108.844L137.356 108.612L137.59 108.381L137.823 108.151L138.055 107.924L138.288 107.697L138.52 107.473L138.752 107.25L138.984 107.028L139.215 106.809L139.446 106.591L139.677 106.374L139.907 106.16L140.137 105.947L140.367 105.735L140.596 105.526L140.826 105.318L141.054 105.112L141.283 104.907L141.51 104.705L141.738 104.504L141.965 104.305L142.192 104.108L142.418 103.913L142.644 103.719L142.87 103.527L143.095 103.338L143.32 103.15L143.544 102.964L143.768 102.78L143.991 102.597L144.214 102.417L144.437 102.238L144.659 102.062L144.88 101.887L145.102 101.715L145.322 101.544L145.542 101.375L145.762 101.209L145.981 101.044L146.2 100.881L146.418 100.721L146.635 100.562L146.852 100.406L147.069 100.251L147.285 100.099L147.5 99.9483L147.715 99.8L147.93 99.6537L148.143 99.5096L148.357 99.3676L148.569 99.2277L148.781 99.0899L148.993 98.9543L149.204 98.8208L149.414 98.6895L149.624 98.5603L149.833 98.4333L150.041 98.3085L150.249 98.1858L150.457 98.0654L150.663 97.9472L150.87 97.8312L151.075 97.7174L151.28 97.6058L151.484 97.4965L151.688 97.3894L151.89 97.2846L152.093 97.182L152.294 97.0817L152.495 96.9837L152.696 96.888L152.895 96.7945L153.094 96.7034L153.292 96.6145L153.49 96.528L153.687 96.4438L153.883 96.3619L154.079 96.2823L154.274 96.2051L154.468 96.1302L154.661 96.0577L154.854 95.9875L155.046 95.9197L155.238 95.8543L155.428 95.7912L155.618 95.7305L155.807 95.6723L155.996 95.6163L156.184 95.5628L156.371 95.5117L156.557 95.463L156.743 95.4167L156.928 95.3728L157.112 95.3313L157.295 95.2923L157.478 95.2557L157.66 95.2215L157.841 95.1897L158.021 95.1604L158.201 95.1336L158.38 95.1092L158.558 95.0872L158.735 95.0677L158.912 95.0506L159.088 95.0361L159.263 95.0239L159.437 95.0143L159.61 95.0071L159.783 95.0024L159.955 95.0002L160.126 95.0004L160.297 95.0031L160.466 95.0083L160.635 95.016L160.803 95.0262L160.971 95.0389L161.137 95.054L161.303 95.0717L161.468 95.0918L161.632 95.1145L161.795 95.1396L161.958 95.1672L162.119 95.1973L162.28 95.23L162.441 95.2651L162.6 95.3027L162.758 95.3429L162.916 95.3855L163.073 95.4306L163.229 95.4782L163.385 95.5284L163.539 95.581L163.693 95.6361L163.846 95.6938L163.998 95.7539L164.149 95.8165L164.3 95.8816L164.449 95.9493L164.598 96.0194L164.746 96.092L164.893 96.1671L165.04 96.2447L165.185 96.3248L165.33 96.4073L165.474 96.4924L165.617 96.5799L165.76 96.6699L165.901 96.7624L166.042 96.8574L166.182 96.9548L166.321 97.0547L166.459 97.1571L166.596 97.2619L166.733 97.3692L166.869 97.479L167.004 97.5912L167.138 97.7058L167.271 97.8229L167.404 97.9425L167.536 98.0645L167.666 98.1889L167.796 98.3158L167.926 98.445L168.054 98.5767L168.182 98.7109L168.309 98.8474L168.435 98.9863L168.56 99.1277L168.684 99.2714L168.808 99.4175L168.93 99.566L169.052 99.7169L169.174 99.8702L169.294 100.026L169.413 100.184L169.532 100.344L169.65 100.507L169.767 100.672L169.883 100.839L169.999 101.009L170.113 101.181L170.227 101.356L170.34 101.532L170.452 101.711L170.564 101.892L170.674 102.076L170.784 102.262L170.893 102.45L171.001 102.64L171.109 102.833L171.215 103.028L171.321 103.225L171.426 103.424L171.53 103.626L171.634 103.83L171.736 104.036L171.838 104.244L171.939 104.455L172.039 104.667L172.139 104.882L172.238 105.099L172.335 105.318L172.432 105.539L172.529 105.763L172.624 105.988L172.719 106.216L172.813 106.445L172.906 106.677L172.998 106.911L173.09 107.147L173.181 107.385L173.271 107.625L173.36 107.867L173.449 108.112L173.536 108.358L173.623 108.606L173.71 108.856L173.795 109.108L173.88 109.363L173.964 109.619L174.047 109.877L174.129 110.137L174.211 110.399L174.291 110.663L174.371 110.929L174.451 111.196L174.529 111.466L174.607 111.737L174.684 112.011L174.76 112.286L174.836 112.563L174.911 112.842L174.985 113.122L175.058 113.405L175.131 113.689L175.202 113.975L175.273 114.263L175.344 114.552L175.413 114.843L175.482 115.136L175.55 115.431L175.618 115.727L175.684 116.025L175.75 116.325L175.815 116.626L175.88 116.929L175.943 117.234L176.006 117.54L176.069 117.848L176.13 118.157L176.191 118.468L176.251 118.78L176.31 119.094L176.369 119.41L176.427 119.727L176.484 120.045L176.54 120.365L176.596 120.686L176.651 121.009L176.706 121.334L176.759 121.659L176.812 121.986L176.864 122.315L176.916 122.645L176.967 122.976L177.017 123.308L177.066 123.642L177.115 123.977L177.163 124.314L177.21 124.651L177.256 124.99L177.302 125.33L177.348 125.672L177.392 126.014L177.436 126.358L177.479 126.703L177.521 127.049L177.563 127.397L177.604 127.745L177.644 128.095L177.684 128.445L177.723 128.797L177.761 129.149L177.799 129.503L177.836 129.858L177.872 130.214L177.908 130.571L177.942 130.928L177.977 131.287L178.01 131.647L178.043 132.007L178.075 132.368L178.107 132.731L178.137 133.094L178.167 133.458L178.197 133.823L178.226 134.189L178.254 134.555L178.281 134.922L178.308 135.29L178.334 135.659L178.36 136.028L178.384 136.399L178.409 136.77L178.432 137.141L178.455 137.513L178.477 137.886L178.498 138.259L178.519 138.634L178.539 139.008L178.559 139.383L178.577 139.759L178.596 140.135L178.613 140.512L178.63 140.889L178.646 141.267L178.662 141.645L178.676 142.024L178.691 142.403L178.704 142.782L178.717 143.162L178.729 143.542L178.741 143.922L178.752 144.303L178.762 144.684L178.772 145.066L178.781 145.447L178.789 145.829L178.796 146.211L178.803 146.594L178.81 146.976L178.815 147.359L178.82 147.742L178.825 148.125L178.829 148.508L178.832 148.891L178.834 149.274L178.836 149.657L178.837 150.041L178.837 150.424L178.837 150.808L178.836 151.191L178.835 151.574L178.833 151.958L178.83 152.341L178.826 152.724L178.822 153.107L178.817 153.49L178.812 153.873L178.806 154.255L178.799 154.638L178.792 155.02L178.784 155.402L178.775 155.784L178.766 156.165L178.756 156.546L178.745 156.927L178.734 157.308L178.722 157.688L178.709 158.068L178.696 158.447L178.682 158.827L178.668 159.205L178.652 159.584L178.636 159.962L178.62 160.339L178.603 160.716L178.585 161.092L178.566 161.468L178.547 161.844L178.527 162.218L178.507 162.593L178.485 162.966L178.464 163.339L178.441 163.712L178.418 164.084L178.394 164.455L178.369 164.825L178.344 165.195L178.318 165.564L178.292 165.932L178.265 166.3L178.237 166.667L178.208 167.033L178.179 167.398L178.149 167.762L178.119 168.126L178.088 168.488L178.056 168.85L178.023 169.211L177.99 169.571L177.956 169.93L177.921 170.288L177.886 170.645L177.85 171.002L177.813 171.357L177.776 171.711L177.738 172.064L177.699 172.416L177.66 172.767L177.62 173.117L177.579 173.466L177.538 173.813L177.496 174.16L177.453 174.506L177.409 174.85L177.365 175.193L177.32 175.535L177.275 175.875L177.228 176.215L177.181 176.553L177.134 176.89L177.085 177.226L177.036 177.56L176.986 177.893L176.936 178.225L176.885 178.555L176.833 178.884L176.78 179.212L176.727 179.538L176.673 179.863L176.618 180.186L176.563 180.508L176.506 180.829L176.449 181.148L176.392 181.465L176.334 181.781L176.274 182.096L176.215 182.409L176.154 182.72L176.093 183.03L176.031 183.339L175.968 183.646L175.905 183.951L175.841 184.254L175.776 184.556L175.71 184.857L175.644 185.155L175.577 185.452L175.509 185.747L175.441 186.041L175.371 186.333L175.301 186.623L175.231 186.912L175.159 187.198L175.087 187.483L175.014 187.766L174.94 188.048L174.866 188.327L174.79 188.605L174.714 188.881L174.638 189.155L174.56 189.427L174.482 189.697L174.403 189.966L174.323 190.232L174.243 190.497L174.161 190.76L174.079 191.021L173.996 191.279L173.913 191.536L173.829 191.791L173.743 192.044L173.658 192.295L173.571 192.544L173.483 192.791L173.395 193.036L173.306 193.279L173.217 193.52L173.126 193.759L173.035 193.996L172.943 194.231L172.85 194.463L172.756 194.694L172.662 194.922L172.567 195.149L172.471 195.373L172.374 195.595L172.276 195.815L172.178 196.033L172.079 196.248L171.979 196.462L171.878 196.673L171.777 196.882L171.674 197.089L171.571 197.294L171.467 197.496L171.363 197.696L171.257 197.894L171.151 198.09L171.044 198.284L170.936 198.475L170.827 198.664L170.718 198.851L170.608 199.035L170.496 199.217L170.385 199.397L170.272 199.575L170.158 199.75L170.044 199.923L169.929 200.094L169.813 200.262L169.696 200.428L169.579 200.592L169.46 200.753L169.341 200.912L169.221 201.069L169.1 201.223L168.979 201.375L168.856 201.524L168.733 201.671L168.609 201.816L168.484 201.958L168.359 202.098L168.232 202.235L168.105 202.37L167.977 202.503L167.848 202.633L167.718 202.761L167.587 202.887L167.456 203.01L167.324 203.13L167.191 203.248L167.057 203.364L166.922 203.477L166.787 203.588L166.65 203.696L166.513 203.802L166.375 203.905L166.237 204.006L166.097 204.104L165.957 204.2L165.816 204.294L165.674 204.385L165.531 204.473L165.387 204.559L165.243 204.643L165.097 204.724L164.951 204.803L164.804 204.879L164.657 204.952L164.508 205.023L164.359 205.092L164.209 205.158L164.058 205.222L163.906 205.283L163.753 205.341L163.6 205.397L163.446 205.451L163.291 205.502L163.135 205.551L162.978 205.597L162.821 205.641L162.663 205.682L162.504 205.72L162.344 205.756L162.183 205.79L162.022 205.821L161.86 205.85L161.697 205.876L161.533 205.899L161.368 205.921L161.203 205.939L161.037 205.955L160.87 205.969L160.702 205.98L160.533 205.989L160.364 205.995L160.194 205.999L160.023 206L159.851 205.999L159.679 205.995L159.506 205.989L159.332 205.98L159.157 205.969L158.981 205.955L158.805 205.939L158.628 205.921L158.45 205.9L158.272 205.876L158.092 205.85L157.912 205.822L157.731 205.791L157.55 205.758L157.367 205.722L157.184 205.684L157 205.644L156.816 205.601L156.631 205.556L156.444 205.508L156.258 205.458L156.07 205.405L155.882 205.35L155.693 205.293L155.503 205.233L155.313 205.171L155.122 205.106L154.93 205.039L154.738 204.97L154.544 204.899L154.351 204.825L154.156 204.748L153.961 204.67L153.765 204.589L153.568 204.506L153.371 204.42L153.173 204.332L152.974 204.242L152.775 204.149L152.575 204.054L152.374 203.957L152.172 203.858L151.97 203.756L151.768 203.652L151.565 203.546L151.361 203.438L151.156 203.327L150.951 203.214L150.745 203.099L150.538 202.982L150.331 202.862L150.124 202.74L149.915 202.616L149.707 202.49L149.497 202.362L149.287 202.231L149.076 202.099L148.865 201.964L148.653 201.827L148.441 201.688L148.228 201.547L148.014 201.403L147.8 201.258L147.585 201.111L147.37 200.961L147.154 200.809L146.938 200.656L146.721 200.5L146.504 200.342L146.286 200.182L146.067 200.02L145.849 199.856L145.629 199.691L145.409 199.523L145.189 199.353L144.968 199.181L144.747 199.007L144.525 198.831L144.302 198.654L144.08 198.474L143.856 198.293L143.633 198.109L143.409 197.924L143.184 197.737L142.959 197.548L142.734 197.357L142.508 197.164L142.282 196.969L142.055 196.773L141.828 196.575L141.6 196.375L141.373 196.173L141.144 195.969L140.916 195.764L140.687 195.557L140.458 195.348L140.228 195.137L139.998 194.925L139.768 194.711L139.537 194.495L139.306 194.278L139.075 194.059L138.844 193.838L138.612 193.615L138.38 193.391L138.147 193.166L137.915 192.939L137.682 192.71L137.449 192.48L137.215 192.248L136.982 192.014L136.748 191.779L136.514 191.543L136.279 191.305L136.045 191.065L135.81 190.824L135.575 190.582L135.34 190.338L135.105 190.092L134.869 189.845L134.634 189.597L134.398 189.348L134.162 189.097L133.926 188.844L133.69 188.59L133.453 188.335L133.217 188.079L132.981 187.821L132.744 187.562L132.507 187.302L132.271 187.04L132.034 186.778L131.797 186.513L131.56 186.248L131.323 185.982L131.087 185.714L130.85 185.445L130.613 185.175L130.376 184.904L130.139 184.631L129.902 184.358L129.665 184.083L129.428 183.808L129.192 183.531L128.955 183.253L128.718 182.974L128.482 182.694L128.245 182.413L128.009 182.131L127.773 181.848L127.536 181.564L127.3 181.279L127.065 180.993L126.829 180.707L126.593 180.419L126.358 180.13L126.123 179.841L125.888 179.55L125.653 179.259L125.418 178.967L125.184 178.674L124.95 178.38L124.716 178.086L124.482 177.79L124.249 177.494L124.016 177.197L123.783 176.9L123.55 176.602L123.318 176.303L123.086 176.003L122.854 175.703L122.623 175.401L122.392 175.1L122.161 174.797L121.931 174.495L121.701 174.191L121.472 173.887L121.243 173.582L121.014 173.277L120.786 172.971L120.558 172.665L120.331 172.358L120.104 172.051L119.877 171.743L119.651 171.435L119.426 171.126L119.201 170.817L118.976 170.507L118.752 170.197L118.529 169.887L118.306 169.576L118.084 169.265L117.862 168.954L117.641 168.642L117.42 168.33L117.2 168.018L116.98 167.705L116.761 167.392L116.543 167.079L116.326 166.766L116.109 166.452L115.892 166.138L115.677 165.824L115.462 165.51L115.248 165.196L115.034 164.881L114.821 164.567L114.609 164.252L114.398 163.937L114.187 163.622L113.977 163.307L113.768 162.992L113.56 162.677L113.353 162.362L113.146 162.047L112.94 161.732L112.735 161.417L112.531 161.101L112.327 160.786L112.125 160.471L111.923 160.156L111.722 159.842L111.522 159.527L111.323 159.212L111.125 158.898L110.928 158.583L110.732 158.269L110.537 157.955L110.343 157.641L110.149 157.328L109.957 157.014L109.766 156.701L109.575 156.388L109.386 156.075L109.198 155.763L109.01 155.451L108.824 155.139L108.639 154.828L108.455 154.516L108.272 154.205L108.09 153.895L107.909 153.585L107.73 153.275L107.551 152.966L107.374 152.657L107.197 152.348L107.022 152.04L106.848 151.732L106.675 151.425L106.504 151.118L106.333 150.812L106.164 150.506L105.996 150.201L105.829 149.896L105.664 149.592L105.5 149.288L105.337 148.985L105.175 148.683L105.015 148.381L104.855 148.079L104.698 147.779L104.541 147.478L104.386 147.179L104.232 146.88L104.079 146.582L103.928 146.284L103.779 145.988L103.63 145.692L103.483 145.396L103.337 145.101L103.193 144.807L103.05 144.514L102.909 144.222L102.769 143.93L102.631 143.639L102.494 143.349L102.358 143.059L102.224 142.771L102.091 142.483L101.96 142.196L101.831 141.91L101.702 141.625L101.576 141.341L101.451 141.057L101.327 140.775L101.205 140.493L101.085 140.212L100.966 139.932L100.849 139.653L100.733 139.375L100.619 139.098L100.507 138.822L100.396 138.547L100.287 138.273L100.179 138L100.073 137.728L99.9689 137.456L99.8662 137.186L99.7653 136.917L99.666 136.649L99.5684 136.382L99.4725 136.116L99.3783 135.851L99.2858 135.587L99.195 135.325L99.1059 135.063L99.0186 134.802L98.933 134.543L98.8492 134.285L98.7671 134.027L98.6868 133.771L98.6083 133.516L98.5315 133.263L98.4566 133.01L98.3834 132.759L98.312 132.508L98.2425 132.259L98.1747 132.011L98.1088 131.765L98.0447 131.519L97.9825 131.275L97.9221 131.032L97.8636 130.79L97.8069 130.549L97.7521 130.31L97.6991 130.072L97.6481 129.835L97.5989 129.6L97.5516 129.365L97.5062 129.132L97.4628 128.901L97.4212 128.67L97.3816 128.441L97.3439 128.213L97.3081 127.987L97.2742 127.762L97.2423 127.538L97.2123 127.315L97.1843 127.094L97.1583 126.874L97.1342 126.656L97.1121 126.439L97.0919 126.223L97.0738 126.009L97.0576 125.796L97.0434 125.584L97.0312 125.374L97.021 125.165L97.0128 124.957L97.0066 124.751L97.0025 124.547L97.0003 124.343L97.0002 124.142L97.0021 123.941L97.006 123.742L97.012 123.545L97.02 123.349L97.03 123.154L97.0421 122.961L97.0562 122.769L97.0724 122.579L97.0907 122.39L97.111 122.202L97.1334 122.016L97.1578 121.832L97.1843 121.649L97.2129 121.467L97.2435 121.287L97.2763 121.109L97.3111 120.932L97.348 120.756L97.387 120.582L97.428 120.409L97.4712 120.238L97.5165 120.069L97.5638 119.9L97.6132 119.734L97.6648 119.569L97.7184 119.405L97.7742 119.243L97.832 119.082L97.892 118.923L97.954 118.766L98.0182 118.61L98.0845 118.455L98.1528 118.302L98.2233 118.151L98.2959 118.001L98.3706 117.853L98.4475 117.706L98.5264 117.561L98.6074 117.417L98.6906 117.275L98.7759 117.134L98.8632 116.995L98.9527 116.857L99.0444 116.721L99.1381 116.587L99.2339 116.454L99.3318 116.322L99.4319 116.193L99.5341 116.064L99.6383 115.938L99.7447 115.812L99.8532 115.689L99.9638 115.566L100.076 115.446L100.191 115.327L100.308 115.209L100.427 115.093L100.548 114.979L100.671 114.866L100.797 114.755L100.924 114.645L101.054 114.537L101.185 114.43L101.319 114.325L101.454 114.222L101.592 114.12L101.732 114.019L101.874 113.92L102.018 113.823L102.164 113.727L102.312 113.633L102.462 113.54L102.615 113.449L102.769 113.359L102.925 113.271L103.084 113.185L103.244 113.1L103.407 113.016L103.571 112.934L103.738 112.854L103.906 112.775L104.077 112.697L104.25 112.621L104.424 112.547L104.601 112.474L104.779 112.403L104.96 112.333L105.143 112.265L105.327 112.198L105.514 112.132L105.702 112.069L105.893 112.006L106.085 111.946L106.28 111.886L106.476 111.829L106.674 111.772L106.875 111.717L107.077 111.664L107.281 111.612L107.487 111.562L107.695 111.513L107.905 111.466L108.116 111.42L108.33 111.375L108.546 111.332L108.763 111.291L108.982 111.25L109.203 111.212L109.426 111.175L109.651 111.139L109.878 111.105L110.106 111.072L110.336 111.04L110.569 111.01L110.803 110.982L111.038 110.955L111.276 110.929L111.515 110.905L111.756 110.882L111.999 110.86L112.243 110.84L112.49 110.821L112.738 110.804L112.988 110.788L113.239 110.774L113.492 110.761L113.747 110.749L114.004 110.738L114.262 110.729L114.522 110.722L114.784 110.716L115.047 110.711L115.312 110.707L115.578 110.705L115.846 110.704L116.116 110.704L116.387 110.706L116.66 110.709L116.935 110.714L117.211 110.719L117.488 110.726L117.768 110.735L118.048 110.744L118.33 110.755L118.614 110.768L118.899 110.781L119.186 110.796L119.474 110.812L119.764 110.83L120.055 110.848L120.347 110.868L120.641 110.889L120.937 110.912L121.233 110.935L121.532 110.96L121.831 110.986L122.132 111.013L122.434 111.042L122.738 111.072L123.043 111.103L123.349 111.135L123.656 111.168L123.965 111.203L124.275 111.239L124.586 111.276L124.899 111.314L125.213 111.353L125.528 111.393L125.844 111.435L126.161 111.478L126.48 111.522L126.8 111.567L127.121 111.613L127.443 111.66L127.766 111.709L128.09 111.758L128.416 111.809L128.742 111.861L129.07 111.913L129.398 111.967L129.728 112.022L130.059 112.079L130.39 112.136L130.723 112.194L131.056 112.253L131.391 112.314L131.727 112.375L132.063 112.438L132.401 112.501L132.739 112.566L133.078 112.631L133.418 112.698L133.759 112.765L134.101 112.834L134.443 112.903L134.787 112.974L135.131 113.046L135.476 113.118L135.822 113.192L136.168 113.266L136.515 113.342L136.863 113.418L137.212 113.495L137.561 113.574L137.911 113.653L138.262 113.733L138.613 113.814L138.965 113.896L139.318 113.979L139.671 114.063L140.024 114.148L140.379 114.233L140.733 114.32L141.089 114.407L141.445 114.496L141.801 114.585L142.158 114.675L142.515 114.766L142.873 114.857L143.231 114.95L143.589 115.043L143.948 115.138L144.307 115.233L144.667 115.328L145.027 115.425L145.387 115.523L145.748 115.621L146.108 115.72L146.47 115.82L146.831 115.92L147.193 116.022L147.554 116.124L147.916 116.227L148.279 116.331L148.641 116.435L149.003 116.54L149.366 116.646L149.729 116.753L150.092 116.86L150.455 116.968L150.818 117.077L151.181 117.187L151.544 117.297L151.907 117.408L152.27 117.52L152.633 117.632L152.996 117.745L153.359 117.859L153.722 117.973L154.085 118.088L154.447 118.203L154.81 118.32L155.172 118.437L155.534 118.554L155.896 118.672L156.258 118.791L156.62 118.911L156.981 119.031L157.342 119.151L157.703 119.273L158.064 119.394L158.424 119.517L158.784 119.64L159.143 119.764L159.503 119.888L159.861 120.012L160.22 120.138L160.578 120.264L160.936 120.39L161.293 120.517L161.649 120.645L162.005 120.773L162.361 120.901L162.716 121.03L163.071 121.16L163.425 121.29L163.778 121.421L164.131 121.552L164.484 121.683L164.835 121.816L165.186 121.948L165.537 122.081L165.886 122.215L166.235 122.349L166.584 122.483L166.931 122.618L167.278 122.754L167.624 122.89L167.969 123.026L168.314 123.163L168.657 123.3L169 123.438L169.342 123.576L169.683 123.714L170.023 123.853L170.362 123.992L170.701 124.132L171.038 124.272L171.375 124.413L171.71 124.554L172.045 124.695L172.378 124.837L172.711 124.979L173.042 125.121L173.372 125.264L173.702 125.407L174.03 125.551L174.357 125.695L174.683 125.839L175.008 125.983L175.332 126.128L175.654 126.274L175.975 126.419L176.295 126.565L176.614 126.711L176.932 126.858L177.248 127.005L177.564 127.152L177.877 127.3L178.19 127.448L178.501 127.596L178.811 127.744L179.12 127.893L179.427 128.042L179.733 128.191L180.037 128.341L180.34 128.491L180.642 128.641L180.942 128.791L181.24 128.942L181.537 129.093L181.833 129.244L182.127 129.396L182.42 129.547L182.711 129.699L183.001 129.852L183.289 130.004L183.575 130.157L183.86 130.31L184.143 130.463L184.425 130.616L184.705 130.77L184.983 130.924L185.26 131.078L185.535 131.232L185.808 131.387L186.079 131.541L186.349 131.696L186.617 131.851L186.884 132.007L187.148 132.162L187.411 132.318L187.672 132.474L187.931 132.63L188.189 132.786L188.444 132.942L188.698 133.099L188.95 133.256L189.2 133.413L189.448 133.57L189.694 133.727L189.938 133.885L190.181 134.042L190.421 134.2L190.659 134.358L190.896 134.516L191.13 134.674L191.363 134.833L191.593 134.991L191.822 135.15L192.048 135.309L192.273 135.468L192.495 135.627L192.716 135.786L192.934 135.946L193.15 136.105L193.364 136.265L193.576 136.424L193.786 136.584L193.994 136.744L194.2 136.904L194.403 137.065L194.605 137.225L194.804 137.385L195.001 137.546L195.196 137.707L195.388 137.867L195.578 138.028L195.767 138.189L195.953 138.35L196.136 138.512L196.318 138.673L196.497 138.834L196.674 138.996L196.849 139.157L197.021 139.319L197.191 139.481L197.359 139.642L197.524 139.804L197.687 139.966L197.848 140.128L198.007 140.29L198.163 140.453L198.317 140.615L198.468 140.777L198.617 140.94L198.764 141.102L198.908 141.265L199.05 141.427L199.189 141.59L199.326 141.753L199.461 141.916L199.593 142.079L199.723 142.241L199.851 142.404L199.975 142.567L200.098 142.731L200.218 142.894L200.336 143.057L200.451 143.22L200.563 143.384L200.673 143.547L200.781 143.71L200.886 143.874L200.989 144.037L201.089 144.201L201.187 144.364L201.282 144.528L201.374 144.692L201.464 144.855L201.552 145.019L201.637 145.183L201.72 145.347L201.799 145.51L201.877 145.674L201.952 145.838L202.024 146.002L202.094 146.166L202.161 146.33L202.226 146.494L202.288 146.658L202.347 146.822L202.404 146.986L202.458 147.15L202.51 147.314L202.559 147.478L202.606 147.643L202.65 147.807L202.691 147.971L202.73 148.135L202.766 148.299L202.8 148.464L202.831 148.628L202.859 148.792L202.885 148.956L202.908 149.121L202.929 149.285L202.947 149.449L202.962 149.614L202.975 149.778L202.985 149.942L202.993 150.106L202.997 150.271L203 150.435L203 150.599L202.997 150.764L202.991 150.928L202.983 151.092L202.972 151.257L202.959 151.421L202.943 151.585L202.925 151.749L202.903 151.914L202.88 152.078L202.853 152.242L202.824 152.407L202.793 152.571L202.759 152.735L202.722 152.899L202.683 153.063L202.641 153.228L202.596 153.392L202.549 153.556L202.499 153.72L202.447 153.884L202.392 154.048L202.335 154.212L202.275 154.376L202.212 154.54L202.147 154.704L202.079 154.868L202.009 155.032L201.936 155.196L201.861 155.36L201.783 155.524L201.702 155.688L201.619 155.852L201.534 156.015L201.446 156.179L201.355 156.343L201.262 156.506L201.166 156.67L201.068 156.834L200.967 156.997L200.864 157.161L200.759 157.324L200.65 157.487L200.54 157.651L200.427 157.814L200.311 157.977L200.193 158.14L200.072 158.304L199.949 158.467L199.824 158.63L199.696 158.793L199.566 158.956L199.433 159.118L199.298 159.281L199.16 159.444L199.02 159.607L198.878 159.769L198.733 159.932L198.586 160.094L198.436 160.257L198.285 160.419L198.13 160.581L197.974 160.744L197.815 160.906L197.653 161.068L197.49 161.23L197.324 161.391L197.156 161.553L196.985 161.715L196.812 161.877L196.637 162.038L196.46 162.2L196.28 162.361L196.098 162.522L195.914 162.683L195.727 162.844L195.539 163.005L195.348 163.166L195.155 163.327L194.96 163.488L194.762 163.648L194.562 163.809L194.361 163.969L194.157 164.129L193.951 164.289L193.742 164.449L193.532 164.609L193.32 164.769L193.105 164.928L192.888 165.088L192.67 165.247L192.449 165.406L192.226 165.565L192.001 165.724L191.774 165.883L191.545 166.042L191.314 166.2L191.081 166.359L190.846 166.517L190.61 166.675L190.371 166.833L190.13 166.991L189.887 167.148L189.642 167.306L189.396 167.463L189.147 167.62L188.897 167.777L188.645 167.934L188.391 168.09L188.135 168.247L187.877 168.403L187.617 168.559L187.356 168.715L187.093 168.871L186.828 169.026L186.561 169.181L186.293 169.336L186.023 169.491L185.751 169.646L185.477 169.8L185.202 169.955L184.925 170.109L184.646 170.262L184.366 170.416L184.084 170.569L183.8 170.722L183.515 170.875L183.228 171.028L182.94 171.18L182.65 171.332L182.359 171.484L182.066 171.636L181.771 171.788L181.475 171.939L181.178 172.09L180.879 172.24L180.578 172.391L180.277 172.541L179.973 172.69L179.669 172.84L179.362 172.989L179.055 173.138L178.746 173.287L178.436 173.435L178.124 173.583L177.812 173.731L177.498 173.879L177.182 174.026L176.866 174.173L176.548 174.319L176.228 174.465L175.908 174.611L175.586 174.757L175.264 174.902L174.94 175.047L174.615 175.191L174.289 175.336L173.961 175.479L173.633 175.623L173.303 175.766L172.973 175.909L172.641 176.051L172.308 176.193L171.975 176.335L171.64 176.476L171.304 176.617L170.968 176.757L170.63 176.897L170.291 177.037L169.952 177.176L169.612 177.315L169.27 177.453L168.928 177.591L168.585 177.729L168.241 177.866L167.897 178.003L167.551 178.139L167.205 178.275L166.858 178.41L166.511 178.545L166.162 178.679L165.813 178.813L165.463 178.947L165.113 179.08L164.762 179.212L164.41 179.344L164.057 179.476L163.704 179.607L163.351 179.737L162.997 179.867L162.642 179.997L162.287 180.126L161.931 180.254L161.575 180.382L161.218 180.51L160.861 180.636L160.503 180.763L160.145 180.888L159.786 181.014L159.427 181.138L159.068 181.262L158.708 181.386L158.348 181.509L157.988 181.631L157.628 181.753L157.267 181.874L156.905 181.994L156.544 182.114L156.182 182.234L155.821 182.352L155.458 182.47L155.096 182.588L154.734 182.705L154.371 182.821L154.009 182.936L153.646 183.051L153.283 183.165L152.92 183.279L152.557 183.392L152.194 183.504L151.831 183.615L151.468 183.726L151.105 183.836L150.742 183.946L150.379 184.054L150.016 184.162L149.653 184.269L149.29 184.376L148.927 184.482L148.565 184.587L148.203 184.691L147.84 184.795L147.478 184.897L147.117 184.999L146.755 185.101L146.394 185.201L146.033 185.301L145.672 185.4L145.311 185.498L144.951 185.595L144.591 185.692L144.232 185.787L143.873 185.882L143.514 185.976L143.155 186.069L142.797 186.162L142.44 186.253L142.083 186.344L141.726 186.434L141.37 186.523L141.014 186.611L140.659 186.698L140.304 186.784L139.95 186.87L139.597 186.955L139.244 187.038L138.891 187.121L138.54 187.203L138.188 187.284L137.838 187.364L137.488 187.443L137.139 187.521L136.79 187.598L136.442 187.674L136.095 187.749L135.749 187.824L135.403 187.897L135.059 187.969L134.715 188.041L134.371 188.111L134.029 188.181L133.687 188.249L133.347 188.316L133.007 188.383L132.668 188.448L132.33 188.512L131.992 188.576L131.656 188.638L131.321 188.699L130.986 188.759L130.653 188.818L130.321 188.876L129.989 188.933L129.659 188.989L129.329 189.044L129.001 189.098L128.674 189.15L128.347 189.202L128.022 189.252L127.698 189.302L127.375 189.35L127.053 189.397L126.733 189.443L126.413 189.488L126.095 189.531L125.778 189.574L125.462 189.615L125.147 189.655L124.833 189.694L124.521 189.732L124.21 189.769L123.9 189.804L123.592 189.839L123.284 189.872L122.978 189.904L122.674 189.934L122.371 189.964L122.069 189.992L121.768 190.019L121.469 190.045L121.171 190.07L120.875 190.093L120.58 190.115L120.286 190.136L119.994 190.156L119.703 190.174L119.414 190.191L119.126 190.207L118.839 190.222L118.555 190.235L118.271 190.247L117.989 190.258L117.709 190.267L117.43 190.275L117.153 190.282L116.877 190.287L116.603 190.291L116.33 190.294L116.059 190.296L115.79 190.296L115.522 190.295L115.256 190.292L114.991 190.288L114.729 190.283L114.467 190.277L114.208 190.269L113.95 190.259L113.694 190.249L113.439 190.237L113.186 190.223L112.935 190.209L112.686 190.192L112.438 190.175L112.192 190.156L111.948 190.135L111.705 190.114L111.465 190.09L111.226 190.066L110.989 190.04L110.753 190.012L110.52 189.984L110.288 189.953L110.058 189.921L109.83 189.888L109.604 189.854L109.379 189.818L109.157 189.78L108.936 189.741L108.717 189.701L108.5 189.659L108.285 189.616L108.072 189.571L107.86 189.525L107.651 189.477L107.444 189.428L107.238 189.377L107.034 189.325L106.832 189.271L106.633 189.216L106.435 189.159L106.239 189.101L106.045 189.042L105.853 188.981L105.663 188.918L105.474 188.854L105.288 188.788L105.104 188.721L104.922 188.653L104.742 188.582L104.564 188.511L104.387 188.438L104.213 188.363L104.041 188.287L103.871 188.209L103.703 188.13L103.537 188.049L103.372 187.966L103.21 187.883L103.05 187.797L102.892 187.71L102.737 187.622L102.583 187.532L102.431 187.44L102.281 187.347L102.133 187.253L101.988 187.157L101.844 187.059L101.703 186.96L101.563 186.859L101.426 186.757L101.291 186.653L101.157 186.547L101.026 186.44L100.897 186.332L100.77 186.222L100.645 186.11L100.523 185.997L100.402 185.882L100.283 185.766L100.167 185.648L100.053 185.529L99.9404 185.408L99.8303 185.286L99.7222 185.162L99.6163 185.036L99.5125 184.909L99.4107 184.78L99.3111 184.65L99.2136 184.518L99.1182 184.385L99.025 184.25L98.9338 184.114L98.8447 183.976L98.7578 183.836L98.673 183.695L98.5903 183.553L98.5097 183.409L98.4312 183.263L98.3548 183.116L98.2805 182.967L98.2084 182.817L98.1383 182.665L98.0704 182.512L98.0045 182.357L97.9408 182.201L97.8792 182.043L97.8197 181.884L97.7623 181.723L97.707 181.561L97.6538 181.397L97.6027 181.231L97.5537 181.064L97.5068 180.896L97.462 180.726L97.4192 180.555L97.3786 180.382L97.3401 180.207L97.3036 180.031L97.2692 179.854L97.2369 179.675L97.2067 179.495L97.1786 179.313L97.1525 179.129L97.1285 178.945L97.1066 178.758L97.0867 178.571L97.0689 178.382L97.0531 178.191L97.0394 177.999L97.0277 177.805L97.0181 177.61L97.0106 177.414L97.005 177.216L97.0015 177.017L97 176.816L97.0006 176.614L97.0032 176.41L97.0078 176.205L97.0144 175.999L97.023 175.791L97.0336 175.582L97.0462 175.372L97.0608 175.16L97.0774 174.946L97.096 174.732L97.1166 174.516L97.1391 174.298L97.1636 174.08L97.19 173.859L97.2185 173.638L97.2488 173.415L97.2812 173.191L97.3154 172.966L97.3516 172.739L97.3897 172.511L97.4298 172.281L97.4717 172.051L97.5156 171.819L97.5614 171.586L97.6091 171.351L97.6586 171.115L97.7101 170.878L97.7634 170.64L97.8186 170.4L97.8757 170.159L97.9346 169.917L97.9954 169.674L98.058 169.429L98.1225 169.184L98.1888 168.937L98.2569 168.689L98.3268 168.439L98.3986 168.189L98.4721 167.937L98.5475 167.684L98.6246 167.43L98.7035 167.175L98.7842 166.919L98.8666 166.661L98.9508 166.403L99.0368 166.143L99.1245 165.882L99.2139 165.62L99.305 165.357L99.3979 165.093L99.4924 164.828L99.5887 164.562L99.6867 164.295L99.7863 164.026L99.8876 163.757L99.9906 163.487L100.095 163.215L100.202 162.943L100.309 162.67L100.419 162.395L100.53 162.12L100.643 161.844L100.757 161.566L100.873 161.288L100.991 161.009L101.11 160.729L101.231 160.448L101.353 160.166L101.477 159.883L101.602 159.6L101.729 159.315L101.858 159.03L101.988 158.744L102.119 158.456L102.252 158.169L102.386 157.88L102.522 157.59L102.66 157.3L102.798 157.009L102.939 156.717L103.08 156.424L103.223 156.131L103.368 155.837L103.514 155.542L103.661 155.246L103.81 154.95L103.96 154.653L104.111 154.355L104.264 154.057L104.418 153.758L104.574 153.459L104.731 153.158L104.889 152.857L105.048 152.556L105.209 152.254L105.371 151.951L105.534 151.648L105.699 151.344L105.864 151.04L106.031 150.735L106.2 150.43L106.369 150.124L106.54 149.817L106.711 149.511L106.885 149.203L107.059 148.895L107.234 148.587L107.411 148.279L107.588 147.969L107.767 147.66L107.947 147.35L108.128 147.04L108.31 146.729L108.493 146.418L108.678 146.107L108.863 145.795L109.05 145.484L109.237 145.171L109.426 144.859L109.615 144.546L109.806 144.233L109.997 143.92L110.19 143.606L110.383 143.293L110.578 142.979L110.773 142.665L110.97 142.351L111.167 142.036L111.365 141.722L111.564 141.407L111.764 141.092L111.965 140.777L112.167 140.462L112.37 140.147L112.573 139.832L112.778 139.517L112.983 139.202L113.189 138.887L113.396 138.572L113.604 138.257L113.812 137.942L114.021 137.627L114.231 137.312L114.442 136.997L114.654 136.682L114.866 136.367L115.079 136.053L115.293 135.738L115.507 135.424L115.722 135.11L115.938 134.796L116.154 134.482L116.371 134.168L116.589 133.855L116.807 133.542L117.026 133.229L117.246 132.917L117.466 132.604L117.687 132.292L117.908 131.981L118.13 131.669L118.353 131.358L118.576 131.048L118.799 130.737L119.023 130.428L119.248 130.118L119.473 129.809L119.699 129.5L119.925 129.192L120.151 128.885L120.378 128.577L120.606 128.271L120.834 127.965L121.062 127.659L121.291 127.354L121.52 127.049L121.75 126.745L121.98 126.442L122.21 126.139L122.441 125.837L122.672 125.535L122.903 125.234L123.135 124.934L123.367 124.635L123.599 124.336L123.832 124.038L124.064 123.74L124.298 123.443L124.531 123.148L124.765 122.852L124.999 122.558L125.233 122.264L125.467 121.972L125.702 121.68L125.937 121.389L126.172 121.098L126.407 120.809L126.643 120.521L126.878 120.233L127.114 119.947L127.35 119.661L127.586 119.376L127.822 119.092L128.058 118.81L128.295 118.528L128.531 118.247L128.768 117.967L129.004 117.689L129.241 117.411L129.478 117.134L129.715 116.859L129.952 116.585L130.189 116.311L130.425 116.039L130.662 115.768L130.899 115.498L131.136 115.23L131.373 114.962L131.61 114.696L131.847 114.431L132.084 114.167L132.32 113.905L132.557 113.643L132.794 113.383L133.03 113.124L133.267 112.867L133.503 112.611L133.739 112.356L133.975 112.103L134.211 111.851L134.447 111.6L134.683 111.351L134.919 111.103L135.154 110.856L135.389 110.611L135.624 110.367L135.859 110.125L136.094 109.885L136.328 109.645L136.563 109.408L136.797 109.171L137.031 108.937L137.264 108.704L137.498 108.472L137.731 108.242L137.964 108.013L138.196 107.787L138.428 107.561L138.661 107.338L138.892 107.116L139.124 106.895L139.355 106.677L139.586 106.46L139.816 106.244L140.046 106.03L140.276 105.819L140.506 105.608L140.735 105.4L140.964 105.193L141.192 104.988L141.42 104.785L141.648 104.583L141.876 104.384L142.102 104.186L142.329 103.99L142.555 103.795L142.781 103.603L143.006 103.412L143.231 103.224L143.456 103.037L143.68 102.852L143.903 102.669L144.126 102.488L144.349 102.309L144.571 102.131L144.793 101.956L145.014 101.783L145.235 101.611L145.455 101.442L145.675 101.274L145.894 101.109L146.113 100.946L146.332 100.784L146.549 100.625L146.767 100.467L146.983 100.312L147.2 100.159L147.415 100.007L147.63 99.8583L147.845 99.7113L148.059 99.5663L148.272 99.4235L148.485 99.2827L148.698 99.1441L148.909 99.0076L149.12 98.8733L149.331 98.7411L149.541 98.6111L149.75 98.4832L149.959 98.3575L150.167 98.234L150.375 98.1127L150.582 97.9936L150.788 97.8767L150.994 97.7621L151.199 97.6496L151.403 97.5394L151.607 97.4314L151.81 97.3257L152.013 97.2223L152.215 97.1211L152.416 97.0221L152.617 96.9255L152.816 96.8312L153.016 96.7391L153.214 96.6493L153.412 96.5619L153.609 96.4768L153.806 96.394L154.002 96.3135L154.197 96.2353L154.391 96.1595L154.585 96.0861L154.778 96.015L154.97 95.9462L155.162 95.8799L155.353 95.8159L155.543 95.7542L155.733 95.695L155.922 95.6381L156.11 95.5837L156.297 95.5316L156.484 95.482L156.669 95.4347L156.855 95.3899L157.039 95.3474L157.223 95.3074L157.406 95.2699L157.588 95.2347L157.769 95.202L157.95 95.1717L158.13 95.1439L158.309 95.1185L158.487 95.0956L158.665 95.0751L158.842 95.0571L159.018 95.0415L159.194 95.0284L159.368 95.0178L159.542 95.0096L159.715 95.004L159.887 95.0007L160.059 95L160.23 95.0017L160.399 95.006L160.569 95.0127L160.737 95.0219L160.905 95.0336L161.071 95.0477L161.237 95.0644L161.403 95.0836L161.567 95.1052L161.731 95.1294L161.894 95.156L162.056 95.1852L162.217 95.2168L162.377 95.2509L162.537 95.2876L162.696 95.3267L162.854 95.3684L163.011 95.4125L163.168 95.4591L163.323 95.5083L163.478 95.5599L163.632 95.6141L163.785 95.6707L163.938 95.7298L164.089 95.7915L164.24 95.8556L164.39 95.9223L164.539 95.9914L164.688 96.063L164.835 96.1371L164.982 96.2137L165.128 96.2928L165.273 96.3744L165.417 96.4585L165.561 96.545L165.703 96.634L165.845 96.7256L165.986 96.8195L166.126 96.916L166.266 97.0149L166.404 97.1163L166.542 97.2202L166.679 97.3265L166.815 97.4353L166.951 97.5465L167.085 97.6602L167.219 97.7764L167.352 97.895L167.484 98.016L167.615 98.1395L167.745 98.2654L167.875 98.3937L168.004 98.5244L168.132 98.6576L168.259 98.7932L168.385 98.9311L168.51 99.0715L168.635 99.2143L168.759 99.3595L168.882 99.5071L169.004 99.657L169.126 99.8094L169.246 99.9641L169.366 100.121L169.485 100.281L169.603 100.442L169.721 100.606L169.837 100.773L169.953 100.942L170.068 101.113L170.182 101.286L170.296 101.462L170.408 101.64L170.52 101.821L170.631 102.003L170.741 102.188L170.85 102.375L170.959 102.565L171.066 102.757L171.173 102.951L171.279 103.147L171.385 103.345L171.489 103.546L171.593 103.749L171.696 103.954L171.798 104.162L171.899 104.371L172 104.583L172.1 104.797L172.199 105.013L172.297 105.231L172.394 105.452L172.491 105.674L172.587 105.899L172.682 106.126L172.776 106.354L172.869 106.585L172.962 106.818L173.054 107.054L173.145 107.291L173.235 107.53L173.325 107.772L173.414 108.015L173.502 108.26L173.589 108.508L173.676 108.757L173.761 109.009L173.846 109.262L173.93 109.517L174.014 109.775L174.097 110.034L174.178 110.295L174.26 110.558L174.34 110.823L174.42 111.09L174.498 111.359L174.576 111.63L174.654 111.902L174.73 112.177L174.806 112.453L174.881 112.731L174.956 113.011L175.029 113.293L175.102 113.576L175.174 113.862L175.245 114.149L175.316 114.438L175.386 114.728L175.455 115.02L175.523 115.314L175.591 115.61L175.658 115.907L175.724 116.206L175.79 116.507L175.854 116.809L175.918 117.113L175.982 117.419L176.044 117.726L176.106 118.034L176.167 118.345L176.227 118.657L176.287 118.97L176.346 119.285L176.404 119.601L176.461 119.919L176.518 120.238L176.574 120.559L176.63 120.882L176.684 121.205L176.738 121.53L176.791 121.857L176.844 122.185L176.895 122.514L176.947 122.845L176.997 123.177L177.047 123.51L177.095 123.845L177.144 124.181L177.191 124.518L177.238 124.856L177.284 125.196L177.33 125.537L177.375 125.879L177.419 126.222L177.462 126.567L177.505 126.912L177.547 127.259L177.588 127.607L177.628 127.956L177.668 128.306L177.708 128.658L177.746 129.01L177.784 129.363L177.821 129.718L177.858 130.073L177.894 130.429L177.929 130.787L177.963 131.145L177.997 131.504L178.03 131.864L178.062 132.226L178.094 132.588L178.125 132.95L178.156 133.314L178.185 133.679L178.214 134.044L178.243 134.41L178.271 134.777L178.298 135.145L178.324 135.513L178.35 135.882L178.375 136.252L178.399 136.623L178.423 136.994L178.446 137.366L178.468 137.739L178.49 138.112L178.511 138.486L178.531 138.86L178.551 139.235L178.57 139.61L178.589 139.987L178.606 140.363L178.623 140.74L178.64 141.118L178.656 141.496L178.671 141.874L178.685 142.253L178.699 142.632L178.712 143.012L178.724 143.392L178.736 143.772L178.747 144.153L178.758 144.534L178.768 144.915L178.777 145.296L178.786 145.678L178.794 146.06L178.801 146.443L178.807 146.825L178.813 147.208L178.819 147.59L178.823 147.973L178.827 148.356L178.83 148.739L178.833 149.123L178.835 149.506L178.837 149.889L178.837 150.273L178.837 150.656L178.837 151.04L178.835 151.423L178.834 151.806L178.831 152.189L178.828 152.573L178.824 152.956L178.819 153.339L178.814 153.721L178.808 154.104L178.802 154.487L178.795 154.869L178.787 155.251L178.779 155.633L178.77 156.014L178.76 156.396L178.749 156.777L178.738 157.157L178.727 157.538L178.714 157.918L178.701 158.298L178.688 158.677L178.673 159.056L178.658 159.434L178.643 159.812L178.626 160.19L178.609 160.567L178.592 160.944L178.574 161.32L178.555 161.695L178.535 162.07L178.515 162.445L178.494 162.819L178.472 163.192L178.45 163.565L178.427 163.937L178.404 164.308L178.379 164.679L178.354 165.049L178.329 165.418L178.303 165.787L178.276 166.155L178.248 166.522L178.22 166.888L178.191 167.254L178.161 167.618L178.131 167.982L178.1 168.345L178.068 168.707L178.036 169.069L178.003 169.429L177.969 169.788L177.935 170.147L177.9 170.504L177.864 170.861L177.828 171.216L177.791 171.571L177.753 171.925L177.715 172.277L177.676 172.628L177.636 172.979L177.595 173.328L177.554 173.676L177.512 174.023L177.47 174.369L177.427 174.714L177.383 175.057L177.338 175.4L177.293 175.741L177.247 176.081L177.2 176.42L177.153 176.757L177.104 177.093L177.056 177.428L177.006 177.762L176.956 178.094L176.905 178.425L176.853 178.754L176.801 179.082L176.748 179.409L176.694 179.735L176.64 180.059L176.585 180.381L176.529 180.702L176.472 181.022L176.415 181.34L176.357 181.657L176.298 181.972L176.238 182.285L176.178 182.598L176.117 182.908L176.056 183.217L175.993 183.525L175.93 183.83L175.866 184.135L175.802 184.437L175.736 184.738L175.67 185.037L175.604 185.335L175.536 185.631L175.468 185.925L175.399 186.218L175.329 186.509L175.259 186.798L175.187 187.085L175.115 187.371L175.043 187.655L174.969 187.937L174.895 188.217L174.82 188.495L174.744 188.772L174.668 189.047L174.591 189.32L174.513 189.591L174.434 189.86L174.355 190.127L174.274 190.393L174.193 190.656L174.112 190.918L174.029 191.177L173.946 191.435L173.862 191.691L173.777 191.945L173.692 192.196L173.605 192.446L173.518 192.694L173.43 192.94L173.342 193.183L173.252 193.425L173.162 193.665L173.071 193.902L172.979 194.138L172.887 194.372L172.793 194.603L172.699 194.832L172.604 195.059L172.509 195.284L172.412 195.507L172.315 195.728L172.217 195.947L172.118 196.163L172.018 196.378L171.918 196.59L171.817 196.8L171.715 197.007L171.612 197.213L171.509 197.416L171.404 197.618L171.299 197.816L171.193 198.013L171.086 198.208L170.979 198.4L170.87 198.59L170.761 198.777L170.651 198.963L170.54 199.146L170.429 199.327L170.316 199.505L170.203 199.681L170.089 199.855L169.974 200.027L169.859 200.196L169.742 200.363L169.625 200.527L169.507 200.69L169.388 200.849L169.269 201.007L169.148 201.162L169.027 201.315L168.905 201.465L168.782 201.613L168.658 201.759L168.534 201.902L168.408 202.043L168.282 202.181L168.155 202.317L168.027 202.451L167.899 202.582L167.769 202.711L167.639 202.837L167.508 202.961L167.376 203.083L167.243 203.202L167.11 203.318L166.976 203.433L166.84 203.544L166.704 203.653L166.568 203.76L166.43 203.865L166.292 203.966L166.152 204.066L166.012 204.163L165.871 204.257L165.73 204.349L165.587 204.439L165.444 204.526L165.3 204.61L165.155 204.692L165.009 204.772L164.862 204.849L164.715 204.923L164.567 204.995L164.418 205.065L164.268 205.132L164.117 205.197L163.966 205.259L163.814 205.318L163.661 205.376L163.507 205.43L163.352 205.482L163.197 205.532L163.04 205.579L162.883 205.624L162.725 205.666L162.567 205.705L162.407 205.742L162.247 205.777L162.086 205.809L161.924 205.839L161.761 205.866L161.598 205.89L161.433 205.913L161.268 205.932L161.102 205.949L160.936 205.964L160.768 205.976L160.6 205.986L160.431 205.993L160.261 205.998L160.091 206L159.919 206L159.747 205.997L159.574 205.992L159.4 205.984L159.226 205.974L159.051 205.961L158.875 205.946L158.698 205.928L158.52 205.908L158.342 205.886L158.163 205.861L157.983 205.834L157.803 205.804L157.621 205.771L157.439 205.737L157.257 205.7L157.073 205.66L156.889 205.618L156.704 205.574L156.518 205.527L156.332 205.478L156.144 205.426L155.956 205.372L155.768 205.316L155.578 205.257L155.388 205.196L155.198 205.132L155.006 205.066L154.814 204.998L154.621 204.927L154.427 204.854L154.233 204.779L154.038 204.701L153.842 204.621L153.646 204.539L153.449 204.454L153.251 204.367L153.052 204.278L152.853 204.186L152.654 204.092L152.453 203.996L152.252 203.897L152.05 203.797L151.848 203.694L151.645 203.588L151.441 203.481L151.237 203.371L151.032 203.259L150.826 203.145L150.62 203.028L150.413 202.909L150.206 202.789L149.998 202.665L149.789 202.54L149.58 202.413L149.37 202.283L149.16 202.151L148.948 202.017L148.737 201.881L148.525 201.743L148.312 201.603L148.099 201.46L147.885 201.316L147.67 201.169L147.455 201.02L147.24 200.869L147.023 200.717L146.807 200.562L146.59 200.405L146.372 200.246L146.154 200.085L145.935 199.921L145.716 199.756L145.496 199.589L145.276 199.42L145.055 199.249L144.834 199.076L144.612 198.901L144.39 198.724L144.168 198.545L143.945 198.365L143.721 198.182L143.497 197.997L143.273 197.811L143.048 197.623L142.823 197.432L142.597 197.24L142.371 197.046L142.144 196.851L141.918 196.653L141.69 196.454L141.463 196.253L141.235 196.05L141.006 195.845L140.778 195.639L140.548 195.43L140.319 195.221L140.089 195.009L139.859 194.795L139.628 194.58L139.398 194.364L139.167 194.145L138.935 193.925L138.703 193.704L138.471 193.48L138.239 193.255L138.007 193.029L137.774 192.8L137.541 192.571L137.307 192.339L137.074 192.107L136.84 191.872L136.606 191.636L136.372 191.399L136.137 191.16L135.903 190.919L135.668 190.678L135.433 190.434L135.198 190.189L134.962 189.943L134.727 189.695L134.491 189.446L134.255 189.196L134.019 188.944L133.783 188.691L133.547 188.436L133.31 188.18L133.074 187.923L132.838 187.665L132.601 187.405L132.364 187.144L132.128 186.882L131.891 186.618L131.654 186.353L131.417 186.087L131.18 185.82L130.943 185.551L130.706 185.282L130.469 185.011L130.232 184.739L129.996 184.466L129.759 184.192L129.522 183.917L129.285 183.64L129.048 183.363L128.812 183.084L128.575 182.805L128.339 182.524L128.102 182.243L127.866 181.96L127.63 181.676L127.394 181.392L127.158 181.106L126.922 180.82L126.686 180.533L126.451 180.244L126.216 179.955L125.981 179.665L125.746 179.374L125.511 179.082L125.276 178.79L125.042 178.496L124.808 178.202L124.574 177.907L124.341 177.611L124.108 177.315L123.875 177.018L123.642 176.72L123.41 176.421L123.178 176.121L122.946 175.821L122.714 175.521L122.483 175.219L122.253 174.917L122.022 174.614L121.792 174.311L121.563 174.007L121.333 173.703L121.105 173.398L120.876 173.092L120.648 172.786L120.421 172.479L120.193 172.172L119.967 171.865L119.741 171.557L119.515 171.248L119.29 170.939L119.065 170.63L118.841 170.32L118.617 170.01L118.394 169.699L118.171 169.388L117.949 169.077L117.728 168.765L117.507 168.454L117.287 168.141L117.067 167.829L116.848 167.516L116.629 167.203L116.412 166.89L116.194 166.576L115.978 166.262L115.762 165.948L115.547 165.634L115.332 165.32L115.118 165.006L114.905 164.691L114.693 164.376L114.481 164.062L114.27 163.747L114.06 163.432L113.851 163.117L113.642 162.802L113.434 162.487L113.227 162.171L113.021 161.856L112.816 161.541L112.611 161.226L112.408 160.911L112.205 160.596L112.003 160.281L111.802 159.966L111.601 159.651L111.402 159.337L111.204 159.022L111.006 158.708L110.81 158.393L110.614 158.079L110.419 157.765L110.226 157.452L110.033 157.138L109.841 156.825L109.65 156.512L109.461 156.199L109.272 155.886L109.084 155.574L108.898 155.262L108.712 154.951L108.528 154.639L108.344 154.328L108.162 154.018L107.981 153.707L107.8 153.397L107.621 153.088L107.443 152.779L107.267 152.47L107.091 152.162L106.917 151.854L106.743 151.546L106.571 151.239L106.4 150.933L106.231 150.627L106.062 150.321L105.895 150.017L105.729 149.712L105.564 149.408L105.401 149.105L105.239 148.802L105.078 148.5L104.918 148.198L104.76 147.897L104.603 147.597L104.447 147.297L104.293 146.998L104.14 146.7L103.988 146.402L103.838 146.105L103.689 145.808L103.541 145.513L103.395 145.218L103.25 144.923L103.107 144.63L102.965 144.337L102.824 144.045L102.685 143.754L102.548 143.463L102.411 143.174L102.277 142.885L102.144 142.597L102.012 142.31L101.882 142.023L101.753 141.738L101.626 141.453L101.5 141.169L101.376 140.886L101.253 140.604L101.132 140.323L101.013 140.043L100.895 139.763L100.779 139.485L100.664 139.208L100.551 138.931L100.439 138.656L100.33 138.381L100.221 138.108L100.115 137.835L100.01 137.563L99.9066 137.293L99.805 137.023L99.705 136.755L99.6067 136.488L99.5102 136.221L99.4153 135.956L99.3221 135.692L99.2306 135.428L99.1409 135.166L99.0529 134.905L98.9666 134.645L98.8821 134.387L98.7993 134.129L98.7183 133.872L98.6391 133.617L98.5616 133.363L98.486 133.11L98.4121 132.858L98.34 132.607L98.2697 132.358L98.2013 132.109L98.1346 131.862L98.0698 131.616L98.0069 131.371L97.9457 131.128L97.8865 130.885L97.8291 130.644L97.7735 130.405L97.7198 130.166L97.668 129.929L97.6181 129.693L97.5701 129.458L97.524 129.224L97.4797 128.992L97.4374 128.761L97.397 128.532L97.3585 128.303L97.322 128.076L97.2874 127.85L97.2547 127.626L97.2239 127.403L97.1952 127.181L97.1683 126.961L97.1435 126.742L97.1206 126.524L97.0997 126.308L97.0807 126.093L97.0637 125.88L97.0488 125.667L97.0358 125.457L97.0248 125.247L97.0158 125.039L97.0088 124.833L97.0039 124.627L97.0009 124.424L97 124.221L97.0011 124.02L97.0042 123.821L97.0094 123.623L97.0166 123.426L97.0258 123.231L97.0371 123.037L97.0504 122.845L97.0658 122.654L97.0832 122.464L97.1027 122.276L97.1243 122.09L97.1479 121.905L97.1736 121.721L97.2013 121.539L97.2312 121.358L97.2631 121.179L97.2971 121.001L97.3332 120.825L97.3713 120.651L97.4116 120.477L97.4539 120.306L97.4983 120.135L97.5448 119.967L97.5935 119.799L97.6442 119.634L97.697 119.47L97.7519 119.307L97.8089 119.146L97.868 118.986L97.9292 118.828L97.9926 118.671L98.058 118.516L98.1256 118.363L98.1952 118.211L98.267 118.06L98.3409 117.911L98.4168 117.764L98.4949 117.618L98.5752 117.474L98.6575 117.331L98.7419 117.189L98.8285 117.05L98.9171 116.912L99.0079 116.775L99.1008 116.64L99.1958 116.506L99.2929 116.374L99.3921 116.244L99.4935 116.115L99.5969 115.987L99.7024 115.862L99.8101 115.737L99.9198 115.615L100.032 115.493L100.146 115.374L100.262 115.256L100.38 115.139L100.5 115.024L100.623 114.911L100.747 114.799L100.874 114.688L101.002 114.58L101.133 114.472L101.266 114.367L101.401 114.263L101.538 114.16L101.677 114.059L101.818 113.959L101.961 113.861L102.106 113.765L102.254 113.67L102.403 113.577L102.554 113.485L102.708 113.395L102.863 113.306L103.021 113.219L103.181 113.133L103.342 113.049L103.506 112.966L103.672 112.885L103.84 112.806L104.009 112.728L104.181 112.651L104.355 112.576L104.531 112.503L104.709 112.431L104.888 112.36L105.07 112.291L105.254 112.224L105.44 112.158L105.628 112.094L105.817 112.031L106.009 111.969L106.203 111.91L106.398 111.851L106.596 111.794L106.795 111.739L106.997 111.685L107.2 111.633L107.405 111.582L107.612 111.532L107.822 111.484L108.033 111.438L108.245 111.393L108.46 111.349L108.677 111.307L108.895 111.266L109.116 111.227L109.338 111.189L109.562 111.153L109.788 111.118L110.016 111.084L110.245 111.053L110.477 111.022L110.71 110.993L110.945 110.965L111.182 110.939L111.42 110.914L111.661 110.891L111.903 110.868L112.147 110.848L112.392 110.829L112.64 110.811L112.889 110.794L113.14 110.779L113.392 110.766L113.646 110.753L113.902 110.742L114.16 110.733L114.419 110.725L114.68 110.718L114.943 110.712L115.207 110.708L115.473 110.706L115.74 110.704L116.009 110.704L116.28 110.705L116.552 110.708L116.826 110.712L117.102 110.717L117.379 110.724L117.657 110.731L117.937 110.741L118.219 110.751L118.502 110.763L118.786 110.776L119.073 110.79L119.36 110.806L119.649 110.823L119.94 110.841L120.232 110.86L120.525 110.881L120.82 110.903L121.116 110.926L121.414 110.95L121.713 110.976L122.013 111.003L122.315 111.031L122.618 111.06L122.922 111.09L123.228 111.122L123.535 111.155L123.843 111.189L124.152 111.224L124.463 111.261L124.775 111.299L125.089 111.337L125.403 111.377L125.719 111.418L126.036 111.461L126.354 111.504L126.673 111.549L126.994 111.595L127.315 111.641L127.638 111.689L127.962 111.738L128.287 111.789L128.613 111.84L128.94 111.892L129.268 111.946L129.598 112.001L129.928 112.056L130.259 112.113L130.591 112.171L130.925 112.23L131.259 112.29L131.594 112.351L131.93 112.413L132.267 112.476L132.605 112.54L132.944 112.605L133.284 112.671L133.624 112.738L133.966 112.807L134.308 112.876L134.651 112.946L134.995 113.017L135.34 113.089L135.685 113.163L136.031 113.237L136.378 113.312L136.726 113.388L137.074 113.465L137.423 113.543L137.773 113.622L138.123 113.701L138.474 113.782L138.826 113.864L139.178 113.946L139.531 114.03L139.885 114.114L140.239 114.2L140.593 114.286L140.948 114.373L141.304 114.461L141.66 114.549L142.017 114.639L142.374 114.73L142.731 114.821L143.089 114.913L143.447 115.006L143.806 115.1L144.165 115.195L144.525 115.29L144.885 115.387L145.245 115.484L145.605 115.582L145.966 115.681L146.327 115.78L146.688 115.881L147.05 115.982L147.411 116.084L147.773 116.186L148.135 116.29L148.498 116.394L148.86 116.499L149.223 116.604L149.586 116.711L149.948 116.818L150.311 116.926L150.674 117.034L151.037 117.143L151.4 117.253L151.763 117.364L152.127 117.475L152.49 117.587L152.853 117.7L153.216 117.814L153.579 117.928L153.941 118.042L154.304 118.158L154.667 118.274L155.029 118.39L155.391 118.508L155.753 118.626L156.115 118.744L156.477 118.863L156.839 118.983L157.2 119.104L157.561 119.225L157.921 119.346L158.282 119.468L158.642 119.591L159.001 119.715L159.361 119.839L159.72 119.963L160.078 120.088L160.437 120.214L160.794 120.34L161.152 120.467L161.508 120.594L161.865 120.722L162.221 120.85L162.576 120.979L162.931 121.109L163.285 121.239L163.639 121.369L163.992 121.5L164.345 121.631L164.696 121.763L165.048 121.896L165.398 122.029L165.748 122.162L166.098 122.296L166.446 122.43L166.794 122.565L167.141 122.7L167.487 122.836L167.833 122.972L168.178 123.109L168.522 123.246L168.865 123.383L169.207 123.521L169.548 123.659L169.889 123.798L170.229 123.937L170.567 124.077L170.905 124.217L171.242 124.357L171.578 124.498L171.913 124.639L172.247 124.781L172.579 124.923L172.911 125.065L173.242 125.207L173.572 125.351L173.9 125.494L174.228 125.638L174.554 125.782L174.88 125.926L175.204 126.071L175.527 126.216L175.849 126.362L176.169 126.507L176.489 126.654L176.807 126.8L177.124 126.947L177.439 127.094L177.754 127.241L178.067 127.389L178.378 127.537L178.689 127.685L178.998 127.834L179.306 127.983L179.612 128.132L179.917 128.282L180.22 128.431L180.523 128.582L180.823 128.732L181.122 128.882L181.42 129.033L181.716 129.184L182.011 129.336L182.305 129.487L182.596 129.639L182.886 129.791L183.175 129.944L183.462 130.096L183.748 130.249L184.031 130.402L184.314 130.556L184.594 130.709L184.873 130.863L185.151 131.017L185.426 131.171L185.7 131.325L185.972 131.48L186.243 131.635L186.512 131.79L186.779 131.945L187.044 132.101L187.307 132.256L187.569 132.412L187.829 132.568L188.087 132.724L188.343 132.881L188.598 133.037L188.85 133.194L189.101 133.351L189.35 133.508L189.597 133.665L189.842 133.822L190.085 133.98L190.326 134.138L190.565 134.296L190.803 134.454L191.038 134.612L191.271 134.77L191.503 134.929L191.732 135.087L191.959 135.246L192.185 135.405L192.408 135.564L192.629 135.723L192.848 135.883L193.065 136.042L193.28 136.202L193.493 136.361L193.704 136.521L193.912 136.681L194.119 136.841L194.323 137.001L194.525 137.162L194.725 137.322L194.923 137.483L195.119 137.643L195.312 137.804L195.504 137.965L195.693 138.126L195.879 138.287L196.064 138.448L196.246 138.609L196.426 138.77L196.604 138.932L196.78 139.093L196.953 139.255L197.124 139.417L197.293 139.578L197.459 139.74L197.623 139.902L197.785 140.064L197.944 140.226L198.101 140.389L198.256 140.551L198.409 140.713L198.558 140.876L198.706 141.038L198.851 141.201L198.994 141.363L199.135 141.526L199.273 141.689L199.408 141.851L199.541 142.014L199.672 142.177L199.801 142.34L199.926 142.503L200.05 142.666L200.171 142.829L200.289 142.992L200.405 143.156L200.519 143.319L200.63 143.482L200.739 143.646L200.845 143.809L200.949 143.973L201.05 144.136L201.148 144.3L201.244 144.463L201.338 144.627L201.429 144.791L201.518 144.954L201.604 145.118L201.687 145.282L201.768 145.446L201.847 145.609L201.922 145.773L201.996 145.937L202.066 146.101L202.135 146.265L202.2 146.429L202.263 146.593L202.324 146.757L202.382 146.921L202.437 147.085L202.49 147.249L202.54 147.414L202.588 147.578L202.633 147.742L202.675 147.906L202.715 148.07L202.752 148.235L202.787 148.399L202.819 148.563L202.848 148.727L202.875 148.891L202.899 149.056L202.921 149.22L202.94 149.384L202.956 149.549L202.97 149.713L202.981 149.877L202.99 150.042L202.996 150.206L202.999 150.37L203 150.534L202.998 150.699L202.994 150.863L202.987 151.027L202.977 151.192L202.965 151.356L202.95 151.52L202.932 151.685L202.912 151.849L202.889 152.013L202.864 152.177L202.836 152.342L202.806 152.506L202.772 152.67L202.737 152.834L202.698 152.999L202.658 153.163L202.614 153.327L202.568 153.491L202.519 153.655L202.468 153.819L202.414 153.983L202.358 154.147L202.299 154.312L202.237 154.476L202.173 154.64L202.106 154.804L202.037 154.968L201.965 155.131L201.891 155.295L201.814 155.459L201.735 155.623L201.652 155.787L201.568 155.951L201.481 156.114L201.391 156.278L201.299 156.442L201.204 156.605L201.107 156.769L201.008 156.932L200.905 157.096L200.801 157.259L200.693 157.423L200.584 157.586L200.472 157.749L200.357 157.913L200.24 158.076L200.12 158.239L199.998 158.402L199.874 158.565L199.747 158.728L199.618 158.891L199.486 159.054L199.352 159.217L199.215 159.38L199.076 159.542L198.935 159.705L198.791 159.868L198.644 160.03L198.496 160.193L198.345 160.355L198.192 160.517L198.036 160.679L197.878 160.842L197.717 161.004L197.555 161.166L197.39 161.328L197.222 161.489L197.053 161.651L196.881 161.813L196.706 161.974L196.53 162.136L196.351 162.297L196.17 162.458L195.987 162.62L195.801 162.781L195.614 162.942L195.424 163.103L195.231 163.263L195.037 163.424L194.84 163.585L194.642 163.745L194.441 163.906L194.238 164.066L194.032 164.226L193.825 164.386L193.615 164.546L193.404 164.706L193.19 164.865L192.974 165.025L192.756 165.184L192.536 165.344L192.314 165.503L192.09 165.662L191.864 165.82L191.636 165.979L191.406 166.138L191.174 166.296L190.939 166.454L190.703 166.613L190.465 166.771L190.225 166.928L189.983 167.086L189.739 167.244L189.494 167.401L189.246 167.558L188.996 167.715L188.745 167.872L188.491 168.029L188.236 168.185L187.979 168.341L187.72 168.497L187.46 168.653L187.197 168.809L186.933 168.965L186.667 169.12L186.399 169.275L186.13 169.43L185.858 169.585L185.585 169.739L185.311 169.894L185.034 170.048L184.756 170.202L184.477 170.355L184.195 170.509L183.913 170.662L183.628 170.815L183.342 170.968L183.054 171.12L182.765 171.272L182.474 171.424L182.182 171.576L181.888 171.728L181.592 171.879L181.295 172.03L180.997 172.181L180.697 172.331L180.396 172.481L180.093 172.631L179.789 172.781L179.484 172.93L179.177 173.079L178.868 173.228L178.559 173.377L178.248 173.525L177.935 173.673L177.622 173.82L177.307 173.968L176.991 174.115L176.673 174.261L176.355 174.408L176.035 174.554L175.714 174.699L175.391 174.845L175.068 174.99L174.743 175.134L174.418 175.279L174.091 175.423L173.763 175.566L173.434 175.709L173.103 175.852L172.772 175.995L172.44 176.137L172.107 176.279L171.772 176.42L171.437 176.561L171.101 176.702L170.763 176.842L170.425 176.982L170.086 177.121L169.746 177.26L169.405 177.399L169.063 177.537L168.721 177.675L168.377 177.812L168.033 177.949L167.688 178.085L167.342 178.221L166.995 178.357L166.648 178.492L166.3 178.626L165.951 178.76L165.602 178.894L165.251 179.027L164.9 179.16L164.549 179.292L164.197 179.424L163.844 179.555L163.491 179.686L163.137 179.816L162.782 179.946L162.427 180.075L162.071 180.204L161.715 180.332L161.359 180.459L161.002 180.586L160.644 180.713L160.286 180.839L159.928 180.964L159.569 181.089L159.21 181.213L158.851 181.337L158.491 181.46L158.131 181.583L157.77 181.705L157.409 181.826L157.048 181.947L156.687 182.067L156.325 182.187L155.964 182.306L155.602 182.424L155.239 182.542L154.877 182.659L154.515 182.775L154.152 182.891L153.789 183.006L153.426 183.12L153.063 183.234L152.7 183.347L152.337 183.46L151.974 183.571L151.611 183.682L151.248 183.793L150.885 183.902L150.522 184.011L150.159 184.12L149.796 184.227L149.433 184.334L149.071 184.44L148.708 184.545L148.346 184.65L147.983 184.754L147.621 184.857L147.26 184.959L146.898 185.061L146.537 185.162L146.175 185.262L145.814 185.361L145.454 185.459L145.093 185.557L144.733 185.654L144.374 185.75L144.015 185.845L143.656 185.939L143.297 186.033L142.939 186.125L142.581 186.217L142.224 186.308L141.867 186.399L141.511 186.488L141.155 186.576L140.799 186.664L140.444 186.751L140.09 186.836L139.736 186.921L139.383 187.005L139.03 187.088L138.678 187.17L138.327 187.252L137.976 187.332L137.626 187.412L137.277 187.49L136.928 187.568L136.58 187.644L136.232 187.72L135.886 187.794L135.54 187.868L135.195 187.941L134.85 188.013L134.507 188.083L134.164 188.153L133.822 188.222L133.481 188.29L133.141 188.357L132.802 188.422L132.463 188.487L132.126 188.551L131.789 188.613L131.453 188.675L131.118 188.736L130.785 188.795L130.452 188.854L130.12 188.911L129.789 188.967L129.459 189.022L129.131 189.077L128.803 189.13L128.476 189.182L128.151 189.232L127.826 189.282L127.503 189.331L127.18 189.378L126.859 189.425L126.539 189.47L126.22 189.514L125.903 189.557L125.586 189.599L125.271 189.64L124.957 189.679L124.644 189.717L124.333 189.755L124.022 189.791L123.713 189.825L123.406 189.859L123.099 189.891L122.794 189.922L122.49 189.952L122.188 189.981L121.887 190.009L121.587 190.035L121.289 190.06L120.992 190.084L120.696 190.107L120.402 190.128L120.109 190.148L119.818 190.167L119.528 190.185L119.239 190.201L118.952 190.216L118.667 190.23L118.383 190.242L118.1 190.254L117.819 190.263L117.54 190.272L117.262 190.279L116.986 190.285L116.711 190.29L116.438 190.293L116.166 190.295L115.896 190.296L115.628 190.295L115.361 190.293L115.096 190.29L114.832 190.285L114.57 190.279L114.31 190.272L114.052 190.263L113.795 190.253L113.539 190.242L113.286 190.229L113.034 190.215L112.784 190.199L112.536 190.182L112.289 190.163L112.044 190.144L111.801 190.122L111.56 190.1L111.32 190.076L111.082 190.05L110.846 190.023L110.612 189.995L110.379 189.965L110.149 189.934L109.92 189.902L109.693 189.868L109.468 189.832L109.244 189.795L109.023 189.757L108.803 189.717L108.586 189.676L108.37 189.633L108.156 189.589L107.944 189.543L107.734 189.496L107.525 189.447L107.319 189.397L107.114 189.346L106.912 189.293L106.711 189.238L106.513 189.182L106.316 189.124L106.121 189.065L105.928 189.005L105.737 188.943L105.549 188.879L105.362 188.814L105.177 188.748L104.994 188.68L104.813 188.61L104.634 188.539L104.457 188.467L104.282 188.393L104.109 188.317L103.938 188.24L103.769 188.161L103.602 188.081L103.437 187.999L103.274 187.916L103.113 187.831L102.955 187.745L102.798 187.657L102.643 187.568L102.491 187.477L102.34 187.384L102.191 187.29L102.045 187.195L101.901 187.098L101.758 186.999L101.618 186.899L101.48 186.797L101.344 186.694L101.21 186.589L101.078 186.483L100.948 186.375L100.82 186.265L100.695 186.154L100.571 186.042L100.449 185.928L100.33 185.812L100.213 185.695L100.098 185.576L99.9845 185.456L99.8735 185.334L99.7647 185.211L99.6579 185.086L99.5532 184.959L99.4507 184.831L99.3502 184.702L99.2519 184.571L99.1557 184.438L99.0616 184.304L98.9696 184.168L98.8797 184.031L98.7919 183.892L98.7062 183.751L98.6227 183.609L98.5412 183.466L98.4619 183.321L98.3847 183.174L98.3096 183.026L98.2366 182.877L98.1657 182.726L98.097 182.573L98.0303 182.419L97.9657 182.263L97.9033 182.106L97.843 181.947L97.7847 181.787L97.7286 181.625L97.6746 181.462L97.6226 181.297L97.5728 181.131L97.5251 180.963L97.4794 180.793L97.4359 180.622L97.3944 180.45L97.3551 180.276L97.3178 180.101L97.2826 179.924L97.2494 179.746L97.2184 179.566L97.1895 179.385L97.1626 179.202L97.1377 179.018L97.115 178.832L97.0943 178.645L97.0757 178.456L97.0591 178.266L97.0446 178.075L97.0321 177.882L97.0217 177.687L97.0133 177.492L97.007 177.294L97.0027 177.096L97.0004 176.896L97.0001 176.694L97.0019 176.491L97.0057 176.287L97.0115 176.081L97.0193 175.874L97.0292 175.665L97.041 175.455L97.0548 175.244L97.0706 175.031L97.0884 174.817L97.1082 174.601L97.1299 174.384L97.1537 174.166L97.1794 173.947L97.207 173.726L97.2366 173.503L97.2682 173.28L97.3016 173.055L97.3371 172.829L97.3744 172.601L97.4137 172.372L97.4549 172.142L97.498 171.911L97.5431 171.678L97.59 171.444L97.6388 171.208L97.6895 170.972L97.7421 170.734L97.7966 170.495L97.8529 170.255L97.9111 170.013L97.9712 169.77L98.0331 169.526L98.0968 169.281L98.1624 169.034L98.2298 168.787L98.299 168.538L98.37 168.288L98.4429 168.037L98.5175 167.784L98.5939 167.531L98.6721 167.276L98.7521 167.02L98.8338 166.763L98.9174 166.505L99.0026 166.246L99.0896 165.985L99.1783 165.724L99.2688 165.461L99.361 165.198L99.4549 164.933L99.5505 164.667L99.6478 164.4L99.7467 164.132L99.8474 163.864L99.9497 163.594L100.054 163.323L100.159 163.051L100.267 162.778L100.376 162.504L100.486 162.229L100.598 161.953L100.712 161.676L100.827 161.398L100.944 161.119L101.063 160.84L101.183 160.559L101.305 160.278L101.428 159.995L101.553 159.712L101.679 159.428L101.807 159.143L101.936 158.857L102.067 158.57L102.199 158.282L102.333 157.994L102.468 157.705L102.605 157.415L102.743 157.124L102.883 156.832L103.024 156.54L103.167 156.247L103.311 155.953L103.456 155.659L103.603 155.363L103.751 155.067L103.9 154.771L104.051 154.473L104.204 154.175L104.357 153.876L104.512 153.577L104.668 153.277L104.826 152.976L104.985 152.675L105.145 152.373L105.307 152.071L105.469 151.768L105.633 151.464L105.799 151.16L105.965 150.856L106.133 150.55L106.302 150.245L106.472 149.938L106.643 149.632L106.816 149.325L106.99 149.017L107.165 148.709L107.341 148.401L107.518 148.092L107.696 147.782L107.876 147.473L108.056 147.163L108.238 146.852L108.421 146.541L108.605 146.23L108.79 145.919L108.976 145.607L109.163 145.295L109.351 144.982L109.54 144.67L109.73 144.357L109.921 144.044L110.114 143.73L110.307 143.417L110.501 143.103L110.696 142.789L110.892 142.475L111.089 142.16L111.287 141.846L111.486 141.531L111.685 141.217L111.886 140.902L112.087 140.587L112.29 140.272L112.493 139.957L112.697 139.642L112.902 139.327L113.108 139.011L113.314 138.696L113.522 138.381L113.73 138.066L113.939 137.751L114.148 137.436L114.359 137.121L114.57 136.806L114.782 136.491L114.995 136.177L115.208 135.862L115.422 135.548L115.637 135.234L115.852 134.92L116.069 134.606L116.285 134.292L116.503 133.979L116.721 133.666L116.94 133.353L117.159 133.04L117.379 132.728L117.6 132.416L117.821 132.104L118.042 131.792L118.265 131.481L118.488 131.17L118.711 130.86L118.935 130.55L119.159 130.24L119.384 129.931L119.61 129.622L119.835 129.314L120.062 129.006L120.289 128.699L120.516 128.392L120.744 128.085L120.972 127.78L121.2 127.474L121.429 127.169L121.659 126.865L121.889 126.562L122.119 126.259L122.349 125.956L122.58 125.654L122.811 125.353L123.043 125.053L123.275 124.753L123.507 124.454L123.74 124.155L123.972 123.858L124.206 123.561L124.439 123.264L124.672 122.969L124.906 122.674L125.14 122.38L125.375 122.087L125.609 121.795L125.844 121.504L126.079 121.213L126.314 120.923L126.55 120.635L126.785 120.347L127.021 120.06L127.257 119.774L127.493 119.489L127.729 119.204L127.965 118.921L128.201 118.639L128.438 118.358L128.674 118.078L128.911 117.799L129.148 117.521L129.384 117.244L129.621 116.968L129.858 116.693L130.095 116.419L130.332 116.147L130.569 115.875L130.806 115.605L131.043 115.336L131.28 115.068L131.516 114.801L131.753 114.536L131.99 114.271L132.227 114.008L132.464 113.746L132.7 113.486L132.937 113.227L133.173 112.969L133.41 112.712L133.646 112.457L133.882 112.203L134.118 111.95L134.354 111.699L134.59 111.449L134.825 111.2L135.061 110.953L135.296 110.708L135.531 110.464L135.766 110.221L136.001 109.979L136.236 109.74L136.47 109.501L136.704 109.265L136.938 109.029L137.172 108.795L137.405 108.563L137.639 108.333L137.872 108.104L138.104 107.876L138.337 107.65L138.569 107.426L138.801 107.203L139.032 106.982L139.264 106.763L139.495 106.545L139.725 106.329L139.956 106.115L140.186 105.902L140.415 105.691L140.645 105.482L140.874 105.274L141.102 105.069L141.33 104.865L141.558 104.663L141.786 104.462L142.013 104.264L142.24 104.067L142.466 103.872L142.692 103.679L142.917 103.488L143.142 103.298L143.367 103.111L143.591 102.925L143.815 102.741L144.038 102.559L144.261 102.379L144.484 102.201L144.705 102.025L144.927 101.851L145.148 101.679L145.368 101.509L145.588 101.34L145.808 101.174L146.027 101.01L146.245 100.848L146.463 100.687L146.681 100.529L146.898 100.373L147.114 100.219L147.33 100.067L147.545 99.917L147.76 99.7691L147.974 99.6233L148.188 99.4797L148.401 99.3381L148.614 99.1986L148.826 99.0613L149.037 98.9261L149.248 98.7931L149.458 98.6622L149.668 98.5335L149.877 98.4069L150.085 98.2826L150.293 98.1604L150.5 98.0404L150.707 97.9227L150.913 97.8071L151.118 97.6938L151.323 97.5827L151.527 97.4738L151.73 97.3672L151.933 97.2629L152.135 97.1608L152.337 97.061L152.537 96.9634L152.738 96.8682L152.937 96.7752L153.136 96.6845L153.334 96.5962L153.531 96.5101L153.728 96.4264L153.924 96.345L154.12 96.2659L154.315 96.1892L154.509 96.1148L154.702 96.0428L154.895 95.9731L155.086 95.9058L155.278 95.8409L155.468 95.7783L155.658 95.7181L155.847 95.6603L156.035 95.6049L156.223 95.5519L156.41 95.5013L156.596 95.4531L156.782 95.4073L156.966 95.3639L157.15 95.3229L157.333 95.2844L157.516 95.2483L157.698 95.2146L157.879 95.1834L158.059 95.1546L158.238 95.1283L158.417 95.1044L158.595 95.0829L158.772 95.0639L158.949 95.0474L159.124 95.0333L159.299 95.0217L159.473 95.0126L159.647 95.0059L159.819 95.0017L159.991 95L160.162 95.0008L160.332 95.004L160.502 95.0097L160.671 95.0179L160.839 95.0286L161.006 95.0418L161.172 95.0575L161.338 95.0757L161.502 95.0964L161.666 95.1195L161.829 95.1452L161.992 95.1733L162.153 95.204L162.314 95.2371L162.474 95.2728L162.633 95.3109L162.792 95.3516L162.949 95.3948L163.106 95.4404L163.262 95.4886L163.417 95.5392L163.571 95.5924L163.725 95.648L163.878 95.7062L164.03 95.7668L164.181 95.83L164.331 95.8956L164.48 95.9638L164.629 96.0344L164.777 96.1075L164.924 96.1832L165.07 96.2613L165.216 96.3419L165.36 96.425L165.504 96.5105L165.647 96.5986L165.789 96.6891L165.931 96.7821L166.071 96.8776L166.211 96.9755L166.35 97.076L166.488 97.1789L166.625 97.2842L166.762 97.392L166.897 97.5023L167.032 97.615L167.166 97.7302L167.299 97.8478L167.432 97.9679L167.563 98.0904L167.694 98.2153L167.824 98.3427L167.953 98.4725L168.081 98.6047L168.209 98.7393L168.335 98.8763L168.461 99.0158L168.586 99.1576L168.71 99.3019L168.834 99.4485L168.956 99.5975L169.078 99.7489L169.199 99.9027L169.319 100.059L169.438 100.217L169.557 100.378L169.674 100.541L169.791 100.707L169.907 100.875L170.023 101.045L170.137 101.218L170.251 101.392L170.364 101.57L170.476 101.749L170.587 101.931L170.697 102.115L170.807 102.301L170.916 102.49L171.024 102.681L171.131 102.874L171.238 103.069L171.343 103.267L171.448 103.467L171.552 103.669L171.655 103.873L171.758 104.079L171.859 104.288L171.96 104.499L172.06 104.712L172.16 104.927L172.258 105.145L172.356 105.364L172.453 105.586L172.549 105.81L172.644 106.036L172.739 106.264L172.833 106.494L172.926 106.726L173.018 106.96L173.109 107.197L173.2 107.435L173.29 107.676L173.379 107.918L173.467 108.163L173.555 108.41L173.642 108.658L173.728 108.909L173.813 109.162L173.897 109.416L173.981 109.673L174.064 109.931L174.146 110.192L174.228 110.454L174.308 110.718L174.388 110.985L174.467 111.253L174.546 111.523L174.623 111.795L174.7 112.068L174.776 112.344L174.852 112.621L174.926 112.9L175 113.181L175.073 113.464L175.146 113.749L175.217 114.035L175.288 114.323L175.358 114.613L175.428 114.905L175.496 115.198L175.564 115.493L175.632 115.79L175.698 116.088L175.764 116.388L175.829 116.69L175.893 116.993L175.957 117.298L176.019 117.604L176.082 117.912L176.143 118.222L176.204 118.533L176.263 118.846L176.323 119.16L176.381 119.476L176.439 119.793L176.496 120.112L176.552 120.432L176.608 120.754L176.663 121.077L176.717 121.402L176.77 121.728L176.823 122.055L176.875 122.384L176.926 122.714L176.977 123.045L177.027 123.378L177.076 123.712L177.125 124.048L177.173 124.384L177.22 124.722L177.266 125.062L177.312 125.402L177.357 125.744L177.401 126.087L177.445 126.431L177.488 126.776L177.53 127.122L177.572 127.47L177.613 127.818L177.653 128.168L177.692 128.519L177.731 128.871L177.769 129.224L177.807 129.578L177.843 129.933L177.879 130.288L177.915 130.645L177.95 131.003L177.984 131.362L178.017 131.722L178.05 132.083L178.082 132.444L178.113 132.807L178.144 133.17L178.174 133.534L178.203 133.9L178.232 134.265L178.26 134.632L178.287 134.999L178.314 135.368L178.34 135.736L178.365 136.106L178.39 136.476L178.413 136.847L178.437 137.219L178.459 137.591L178.481 137.964L178.503 138.338L178.523 138.712L178.543 139.087L178.563 139.462L178.581 139.838L178.599 140.214L178.617 140.591L178.633 140.968L178.649 141.346L178.665 141.724L178.679 142.103L178.694 142.482L178.707 142.862L178.72 143.242L178.732 143.622L178.743 144.002L178.754 144.383L178.764 144.764L178.774 145.146L178.782 145.527L178.79 145.909L178.798 146.291L178.805 146.674L178.811 147.056L178.817 147.439L178.821 147.822L178.826 148.205L178.829 148.588L178.832 148.971L178.834 149.355L178.836 149.738L178.837 150.121L178.837 150.505L178.837 150.888L178.836 151.271L178.834 151.655L178.832 152.038L178.829 152.421L178.826 152.804L178.821 153.187L178.816 153.57L178.811 153.953L178.805 154.335L178.798 154.718L178.79 155.1L178.782 155.482L178.773 155.864L178.764 156.245L178.754 156.626L178.743 157.007L178.731 157.388L178.719 157.768L178.707 158.148L178.693 158.527L178.679 158.906L178.664 159.285L178.649 159.663L178.633 160.041L178.616 160.418L178.599 160.795L178.581 161.171L178.562 161.547L178.543 161.922L178.523 162.297L178.502 162.671L178.481 163.045L178.459 163.418L178.436 163.79L178.413 164.162L178.389 164.533L178.364 164.903L178.339 165.273L178.313 165.641L178.286 166.01L178.259 166.377L178.231 166.744L178.202 167.109L178.173 167.474L178.143 167.839L178.112 168.202L178.081 168.564L178.049 168.926L178.016 169.287L177.983 169.646L177.949 170.005L177.914 170.363L177.879 170.72L177.843 171.076L177.806 171.431L177.768 171.785L177.73 172.138L177.691 172.49L177.652 172.841L177.612 173.19L177.571 173.539L177.529 173.886L177.487 174.233L177.444 174.578L177.4 174.922L177.356 175.265L177.311 175.606L177.265 175.947L177.219 176.286L177.171 176.624L177.124 176.96L177.075 177.296L177.026 177.63L176.976 177.963L176.925 178.294L176.874 178.624L176.822 178.953L176.769 179.28L176.716 179.606L176.661 179.931L176.606 180.254L176.551 180.575L176.494 180.896L176.437 181.214L176.38 181.532L176.321 181.847L176.262 182.162L176.202 182.474L176.141 182.786L176.08 183.095L176.018 183.403L175.955 183.71L175.892 184.015L175.827 184.318L175.762 184.619L175.696 184.919L175.63 185.218L175.563 185.514L175.495 185.809L175.426 186.102L175.357 186.394L175.287 186.684L175.216 186.972L175.144 187.258L175.072 187.543L174.998 187.825L174.925 188.106L174.85 188.386L174.774 188.663L174.698 188.938L174.621 189.212L174.544 189.484L174.465 189.754L174.386 190.022L174.306 190.288L174.226 190.552L174.144 190.815L174.062 191.075L173.979 191.333L173.895 191.59L173.811 191.845L173.725 192.097L173.639 192.348L173.553 192.596L173.465 192.843L173.377 193.087L173.288 193.33L173.198 193.57L173.107 193.809L173.016 194.045L172.923 194.28L172.83 194.512L172.736 194.742L172.642 194.97L172.547 195.196L172.45 195.42L172.353 195.641L172.256 195.861L172.157 196.078L172.058 196.293L171.958 196.506L171.857 196.717L171.755 196.926L171.653 197.132L171.55 197.336L171.446 197.538L171.341 197.738L171.235 197.936L171.129 198.131L171.021 198.324L170.913 198.515L170.804 198.703L170.695 198.89L170.584 199.074L170.473 199.255L170.361 199.435L170.248 199.612L170.134 199.787L170.02 199.959L169.905 200.129L169.789 200.297L169.672 200.463L169.554 200.626L169.435 200.787L169.316 200.945L169.196 201.101L169.075 201.255L168.953 201.406L168.831 201.555L168.707 201.702L168.583 201.846L168.458 201.988L168.332 202.127L168.205 202.264L168.078 202.399L167.95 202.531L167.821 202.66L167.691 202.788L167.56 202.913L167.428 203.035L167.296 203.155L167.163 203.273L167.029 203.388L166.894 203.5L166.758 203.611L166.622 203.718L166.484 203.824L166.346 203.926L166.207 204.027L166.068 204.125L165.927 204.22L165.786 204.313L165.644 204.404L165.501 204.492L165.357 204.577L165.212 204.66L165.067 204.741L164.92 204.819L164.773 204.894L164.626 204.967L164.477 205.038L164.327 205.106L164.177 205.172L164.026 205.235L163.874 205.295L163.721 205.353L163.568 205.409L163.413 205.462L163.258 205.513L163.102 205.561L162.945 205.606L162.788 205.649L162.629 205.69L162.47 205.728L162.31 205.764L162.149 205.797L161.988 205.827L161.825 205.855L161.662 205.881L161.498 205.904L161.333 205.925L161.168 205.943L161.002 205.958L160.834 205.972L160.666 205.982L160.498 205.99L160.328 205.996L160.158 205.999L159.987 206L159.815 205.998L159.643 205.994L159.469 205.987L159.295 205.978L159.12 205.966L158.944 205.952L158.768 205.936L158.591 205.917L158.413 205.895L158.234 205.871L158.054 205.845L157.874 205.816L157.693 205.785L157.511 205.751L157.329 205.715L157.146 205.676L156.962 205.635L156.777 205.592L156.592 205.546L156.405 205.497L156.218 205.447L156.031 205.394L155.842 205.338L155.653 205.28L155.464 205.22L155.273 205.158L155.082 205.093L154.89 205.025L154.697 204.955L154.504 204.883L154.31 204.809L154.115 204.732L153.92 204.653L153.723 204.572L153.527 204.488L153.329 204.402L153.131 204.313L152.932 204.222L152.733 204.129L152.532 204.034L152.332 203.937L152.13 203.837L151.928 203.735L151.725 203.63L151.522 203.523L151.318 203.415L151.113 203.303L150.908 203.19L150.702 203.074L150.495 202.957L150.288 202.837L150.08 202.714L149.872 202.59L149.663 202.463L149.453 202.335L149.243 202.204L149.032 202.071L148.821 201.935L148.609 201.798L148.396 201.658L148.183 201.517L147.969 201.373L147.755 201.227L147.54 201.079L147.325 200.929L147.109 200.777L146.892 200.623L146.676 200.467L146.458 200.309L146.24 200.148L146.022 199.986L145.803 199.822L145.583 199.655L145.363 199.487L145.142 199.317L144.921 199.145L144.7 198.97L144.478 198.794L144.256 198.616L144.033 198.436L143.809 198.254L143.586 198.071L143.361 197.885L143.137 197.697L142.912 197.508L142.686 197.316L142.46 197.123L142.234 196.928L142.007 196.731L141.78 196.533L141.553 196.332L141.325 196.13L141.097 195.926L140.868 195.72L140.639 195.513L140.41 195.304L140.18 195.093L139.95 194.88L139.72 194.666L139.489 194.45L139.258 194.232L139.027 194.012L138.795 193.791L138.563 193.569L138.331 193.344L138.099 193.118L137.866 192.891L137.633 192.662L137.4 192.431L137.166 192.199L136.932 191.965L136.699 191.73L136.464 191.493L136.23 191.254L135.995 191.015L135.761 190.773L135.526 190.53L135.291 190.286L135.055 190.041L134.82 189.793L134.584 189.545L134.348 189.295L134.112 189.044L133.876 188.791L133.64 188.537L133.404 188.282L133.167 188.025L132.931 187.767L132.694 187.508L132.458 187.247L132.221 186.985L131.984 186.722L131.747 186.458L131.511 186.192L131.274 185.926L131.037 185.658L130.8 185.388L130.563 185.118L130.326 184.847L130.089 184.574L129.852 184.3L129.615 184.025L129.379 183.75L129.142 183.473L128.905 183.194L128.669 182.915L128.432 182.635L128.196 182.354L127.959 182.072L127.723 181.789L127.487 181.504L127.251 181.219L127.015 180.933L126.779 180.646L126.544 180.358L126.309 180.069L126.073 179.78L125.838 179.489L125.604 179.198L125.369 178.906L125.135 178.612L124.901 178.319L124.667 178.024L124.433 177.728L124.2 177.432L123.967 177.135L123.734 176.837L123.501 176.539L123.269 176.24L123.037 175.94L122.806 175.639L122.575 175.338L122.344 175.036L122.113 174.734L121.883 174.431L121.653 174.127L121.424 173.823L121.195 173.518L120.966 173.213L120.738 172.907L120.51 172.601L120.283 172.294L120.056 171.986L119.83 171.678L119.604 171.37L119.379 171.061L119.154 170.752L118.929 170.442L118.705 170.132L118.482 169.822L118.259 169.511L118.037 169.2L117.815 168.889L117.594 168.577L117.374 168.265L117.154 167.952L116.934 167.64L116.716 167.327L116.498 167.013L116.28 166.7L116.063 166.386L115.847 166.073L115.632 165.759L115.417 165.444L115.203 165.13L114.989 164.815L114.777 164.501L114.565 164.186L114.354 163.871L114.143 163.556L113.933 163.241L113.725 162.926L113.516 162.611L113.309 162.296L113.103 161.981L112.897 161.666L112.692 161.35L112.488 161.035L112.285 160.72L112.082 160.405L111.881 160.09L111.68 159.776L111.481 159.461L111.282 159.146L111.084 158.832L110.887 158.518L110.691 158.203L110.496 157.889L110.302 157.576L110.109 157.262L109.917 156.949L109.726 156.635L109.535 156.323L109.346 156.01L109.158 155.698L108.971 155.385L108.785 155.074L108.6 154.762L108.416 154.451L108.234 154.14L108.052 153.83L107.871 153.52L107.692 153.21L107.514 152.901L107.336 152.592L107.16 152.283L106.985 151.975L106.812 151.668L106.639 151.361L106.468 151.054L106.298 150.748L106.129 150.442L105.961 150.137L105.795 149.832L105.629 149.528L105.465 149.225L105.303 148.922L105.141 148.619L104.981 148.317L104.822 148.016L104.665 147.716L104.508 147.416L104.353 147.116L104.2 146.818L104.048 146.52L103.897 146.222L103.747 145.925L103.599 145.629L103.452 145.334L103.307 145.04L103.163 144.746L103.021 144.453L102.88 144.16L102.74 143.869L102.602 143.578L102.465 143.288L102.33 142.999L102.196 142.71L102.064 142.423L101.933 142.136L101.804 141.85L101.676 141.565L101.55 141.281L101.425 140.998L101.302 140.715L101.18 140.434L101.06 140.153L100.941 139.874L100.825 139.595L100.709 139.317L100.595 139.04L100.483 138.764L100.373 138.489L100.264 138.216L100.157 137.943L100.051 137.671L99.9472 137.4L99.8449 137.13L99.7443 136.861L99.6454 136.593L99.5481 136.326L99.4526 136.06L99.3587 135.796L99.2666 135.532L99.1762 135.27L99.0875 135.008L99.0005 134.748L98.9153 134.489L98.8318 134.231L98.7501 133.974L98.6702 133.718L98.592 133.463L98.5156 133.21L98.4411 132.957L98.3683 132.706L98.2973 132.456L98.2281 132.207L98.1607 131.959L98.0952 131.713L98.0315 131.468L97.9697 131.224L97.9097 130.981L97.8515 130.739L97.7952 130.499L97.7408 130.26L97.6883 130.022L97.6376 129.786L97.5888 129.55L97.5419 129.316L97.497 129.084L97.4539 128.852L97.4127 128.622L97.3735 128.393L97.3362 128.166L97.3008 127.939L97.2674 127.715L97.2359 127.491L97.2063 127.269L97.1787 127.048L97.1531 126.828L97.1294 126.61L97.1077 126.393L97.088 126.178L97.0702 125.964L97.0544 125.751L97.0407 125.54L97.0289 125.33L97.0191 125.121L97.0114 124.914L97.0056 124.708L97.0018 124.504L97.0001 124.301L97.0004 124.1L97.0027 123.899L97.0071 123.701L97.0135 123.503L97.0219 123.308L97.0324 123.113L97.0449 122.92L97.0595 122.729L97.0761 122.539L97.0948 122.35L97.1155 122.163L97.1383 121.978L97.1632 121.793L97.1901 121.611L97.2191 121.429L97.2502 121.25L97.2834 121.071L97.3187 120.895L97.356 120.719L97.3954 120.546L97.4369 120.373L97.4805 120.202L97.5262 120.033L97.574 119.865L97.6239 119.699L97.6759 119.534L97.7299 119.371L97.7861 119.209L97.8444 119.049L97.9048 118.89L97.9673 118.733L98.0319 118.577L98.0986 118.423L98.1674 118.271L98.2384 118.119L98.3114 117.97L98.3866 117.822L98.4638 117.675L98.5432 117.53L98.6247 117.387L98.7083 117.245L98.794 117.105L98.8818 116.966L98.9718 116.829L99.0638 116.693L99.158 116.559L99.2543 116.426L99.3527 116.295L99.4532 116.166L99.5558 116.038L99.6605 115.911L99.7673 115.786L99.8762 115.663L99.9873 115.541L100.1 115.421L100.216 115.302L100.333 115.185L100.452 115.069L100.574 114.955L100.698 114.843L100.823 114.732L100.951 114.622L101.081 114.515L101.213 114.408L101.347 114.304L101.483 114.2L101.621 114.099L101.762 113.998L101.904 113.9L102.049 113.803L102.195 113.707L102.344 113.613L102.494 113.521L102.647 113.43L102.802 113.341L102.958 113.253L103.117 113.167L103.278 113.082L103.441 112.999L103.606 112.917L103.773 112.837L103.942 112.758L104.113 112.681L104.286 112.606L104.461 112.532L104.638 112.459L104.817 112.388L104.998 112.318L105.181 112.25L105.366 112.184L105.553 112.119L105.742 112.055L105.933 111.994L106.126 111.933L106.321 111.874L106.517 111.817L106.716 111.761L106.917 111.706L107.119 111.653L107.324 111.602L107.53 111.551L107.739 111.503L107.949 111.456L108.161 111.41L108.375 111.366L108.591 111.323L108.809 111.282L109.028 111.242L109.25 111.204L109.473 111.167L109.698 111.132L109.925 111.098L110.154 111.065L110.385 111.034L110.618 111.004L110.852 110.976L111.088 110.949L111.326 110.924L111.565 110.9L111.807 110.877L112.05 110.856L112.295 110.836L112.542 110.818L112.79 110.801L113.04 110.785L113.292 110.771L113.546 110.758L113.801 110.747L114.058 110.736L114.316 110.728L114.577 110.72L114.839 110.714L115.102 110.71L115.367 110.706L115.634 110.704L115.903 110.704L116.173 110.705L116.445 110.707L116.718 110.71L116.993 110.715L117.269 110.721L117.547 110.728L117.826 110.737L118.107 110.747L118.39 110.758L118.674 110.77L118.959 110.784L119.246 110.799L119.535 110.816L119.825 110.833L120.116 110.852L120.409 110.872L120.703 110.894L120.999 110.916L121.296 110.94L121.594 110.965L121.894 110.992L122.195 111.019L122.498 111.048L122.802 111.078L123.107 111.109L123.413 111.142L123.721 111.175L124.03 111.21L124.34 111.246L124.652 111.283L124.965 111.322L125.279 111.361L125.594 111.402L125.911 111.444L126.228 111.487L126.547 111.531L126.867 111.576L127.188 111.623L127.511 111.67L127.834 111.719L128.158 111.769L128.484 111.82L128.811 111.872L129.139 111.925L129.467 111.979L129.797 112.034L130.128 112.09L130.46 112.148L130.793 112.206L131.127 112.266L131.461 112.326L131.797 112.388L132.134 112.451L132.471 112.515L132.81 112.579L133.149 112.645L133.49 112.712L133.831 112.78L134.173 112.848L134.515 112.918L134.859 112.989L135.203 113.061L135.548 113.134L135.894 113.207L136.241 113.282L136.588 113.358L136.936 113.434L137.285 113.512L137.635 113.59L137.985 113.67L138.336 113.75L138.687 113.831L139.039 113.914L139.392 113.997L139.745 114.081L140.099 114.166L140.453 114.252L140.808 114.338L141.163 114.426L141.519 114.514L141.876 114.604L142.233 114.694L142.59 114.785L142.948 114.877L143.306 114.969L143.664 115.063L144.023 115.157L144.383 115.253L144.742 115.349L145.102 115.446L145.463 115.543L145.823 115.642L146.184 115.741L146.545 115.841L146.907 115.942L147.268 116.043L147.63 116.146L147.992 116.249L148.355 116.353L148.717 116.457L149.08 116.563L149.442 116.669L149.805 116.775L150.168 116.883L150.531 116.991L150.894 117.1L151.257 117.21L151.62 117.32L151.983 117.431L152.346 117.543L152.709 117.656L153.072 117.769L153.435 117.882L153.798 117.997L154.161 118.112L154.523 118.228L154.886 118.344L155.248 118.461L155.61 118.579L155.972 118.697L156.334 118.816L156.696 118.936L157.057 119.056L157.418 119.177L157.779 119.298L158.139 119.42L158.5 119.543L158.859 119.666L159.219 119.79L159.578 119.914L159.937 120.039L160.295 120.164L160.653 120.29L161.01 120.417L161.368 120.544L161.724 120.671L162.08 120.8L162.436 120.928L162.791 121.057L163.145 121.187L163.499 121.317L163.853 121.448L164.205 121.579L164.557 121.711L164.909 121.843L165.26 121.976L165.61 122.109L165.96 122.243L166.308 122.377L166.657 122.512L167.004 122.647L167.351 122.782L167.696 122.918L168.042 123.055L168.386 123.192L168.729 123.329L169.072 123.467L169.414 123.605L169.754 123.743L170.094 123.882L170.434 124.022L170.772 124.161L171.109 124.302L171.445 124.442L171.78 124.583L172.115 124.725L172.448 124.866L172.78 125.009L173.111 125.151L173.442 125.294L173.771 125.437L174.099 125.581L174.426 125.725L174.751 125.869L175.076 126.014L175.399 126.159L175.722 126.304L176.043 126.45L176.362 126.596L176.681 126.742L176.999 126.889L177.315 127.036L177.63 127.183L177.943 127.331L178.255 127.479L178.566 127.627L178.876 127.775L179.184 127.924L179.491 128.073L179.797 128.223L180.101 128.372L180.403 128.522L180.705 128.672L181.004 128.823L181.303 128.974L181.6 129.125L181.895 129.276L182.189 129.427L182.481 129.579L182.772 129.731L183.061 129.884L183.349 130.036L183.635 130.189L183.92 130.342L184.202 130.495L184.484 130.648L184.763 130.802L185.041 130.956L185.318 131.11L185.592 131.264L185.865 131.419L186.136 131.574L186.406 131.729L186.673 131.884L186.939 132.039L187.204 132.195L187.466 132.35L187.727 132.506L187.985 132.662L188.242 132.819L188.498 132.975L188.751 133.132L189.002 133.289L189.252 133.446L189.5 133.603L189.745 133.76L189.989 133.918L190.231 134.075L190.471 134.233L190.709 134.391L190.945 134.549L191.179 134.708L191.411 134.866L191.642 135.025L191.87 135.183L192.096 135.342L192.32 135.501L192.542 135.66L192.762 135.82L192.98 135.979L193.195 136.139L193.409 136.298L193.621 136.458L193.83 136.618L194.037 136.778L194.243 136.938L194.446 137.098L194.646 137.259L194.845 137.419L195.042 137.58L195.236 137.74L195.428 137.901L195.618 138.062L195.806 138.223L195.991 138.384L196.175 138.545L196.356 138.707L196.534 138.868L196.711 139.03L196.885 139.191L197.057 139.353L197.226 139.515L197.394 139.676L197.559 139.838L197.721 140L197.882 140.162L198.04 140.324L198.195 140.487L198.349 140.649L198.5 140.811L198.648 140.974L198.794 141.136L198.938 141.299L199.079 141.462L199.218 141.624L199.355 141.787L199.489 141.95L199.621 142.113L199.75 142.276L199.877 142.439L200.001 142.602L200.123 142.765L200.243 142.928L200.36 143.091L200.474 143.254L200.587 143.418L200.696 143.581L200.803 143.745L200.908 143.908L201.01 144.072L201.11 144.235L201.207 144.399L201.301 144.562L201.393 144.726L201.483 144.89L201.57 145.053L201.655 145.217L201.736 145.381L201.816 145.545L201.893 145.709L201.967 145.873L202.039 146.036L202.108 146.2L202.175 146.364L202.239 146.528L202.3 146.692L202.359 146.856L202.416 147.021L202.469 147.185L202.521 147.349L202.569 147.513L202.615 147.677L202.659 147.841L202.699 148.005L202.738 148.17L202.773 148.334L202.806 148.498L202.837 148.662L202.865 148.827L202.89 148.991L202.913 149.155L202.933 149.319L202.95 149.484L202.965 149.648L202.977 149.812L202.987 149.977L202.994 150.141L202.998 150.305L203 150.47" stroke="url(#paint0_radial_1_52)"/>
<g filter="url(#filter0_f_1_52)">
<circle cx="150" cy="150" r="50" fill="#FAFAFA" fill-opacity="0.24"/>
</g>
<defs>
<filter id="filter0_f_1_52" x="0" y="0" width="300" height="300" filterUnits="userSpaceOnUse" color-interpolation-filters="sRGB">
<feFlood flood-opacity="0" result="BackgroundImageFix"/>
<feBlend mode="normal" in="SourceGraphic" in2="BackgroundImageFix" result="shape"/>
<feGaussianBlur stdDeviation="50" result="effect1_foregroundBlur_1_52"/>
</filter>
<radialGradient id="paint0_radial_1_52" cx="0" cy="0" r="1" gradientUnits="userSpaceOnUse" gradientTransform="translate(150 150.5) rotate(95.4403) scale(63.2851 53.2398)">
<stop stop-color="#FAFAFA"/>
<stop offset="1" stop-color="#6CDEC5" stop-opacity="0"/>
</radialGradient>
</defs>
</svg>
