<svg width="52" height="52" viewBox="0 0 52 52" fill="none" xmlns="http://www.w3.org/2000/svg">
<g clip-path="url(#clip0_10_867)">
<path d="M37.7824 15.1553C35.6154 14.1577 33.2916 13.4227 30.8619 13.0018C30.8176 12.9936 30.7734 13.0139 30.7506 13.0546C30.4517 13.5878 30.1207 14.2836 29.8889 14.8304C27.2756 14.4379 24.6757 14.4379 22.116 14.8304C21.8841 14.2714 21.541 13.5878 21.2408 13.0546C21.218 13.0153 21.1738 12.995 21.1296 13.0018C18.7012 13.4214 16.3774 14.1563 14.209 15.1553C14.1902 15.1634 14.1741 15.1769 14.1635 15.1945C9.75564 21.8012 8.54815 28.2454 9.14051 34.6098C9.14319 34.6409 9.16061 34.6707 9.18473 34.6896C12.0929 36.8323 14.9099 38.1331 17.6746 38.9953C17.7189 39.0088 17.7658 38.9926 17.7939 38.956C18.4479 38.06 19.0309 37.1152 19.5308 36.1217C19.5603 36.0635 19.5321 35.9945 19.4718 35.9715C18.5471 35.6195 17.6666 35.1905 16.8196 34.7032C16.7526 34.6639 16.7473 34.5678 16.8089 34.5218C16.9871 34.3878 17.1654 34.2484 17.3356 34.1076C17.3664 34.0819 17.4093 34.0765 17.4455 34.0927C23.0098 36.6415 29.0339 36.6415 34.5325 34.0927C34.5687 34.0751 34.6116 34.0806 34.6438 34.1063C34.814 34.247 34.9922 34.3878 35.1718 34.5218C35.2334 34.5678 35.2294 34.6639 35.1624 34.7032C34.3154 35.1999 33.4349 35.6195 32.5089 35.9701C32.4486 35.9931 32.4218 36.0635 32.4513 36.1217C32.9619 37.1138 33.5448 38.0586 34.1868 38.9547C34.2136 38.9926 34.2618 39.0088 34.3061 38.9953C37.0842 38.1331 39.9012 36.8323 42.8094 34.6896C42.8348 34.6707 42.8509 34.6423 42.8536 34.6111C43.5625 27.2532 41.6662 20.8618 37.8266 15.1959C37.8173 15.1769 37.8012 15.1634 37.7824 15.1553ZM20.3617 30.7346C18.6865 30.7346 17.3061 29.1916 17.3061 27.2966C17.3061 25.4016 18.6597 23.8586 20.3617 23.8586C22.0771 23.8586 23.4441 25.4151 23.4172 27.2966C23.4172 29.1916 22.0637 30.7346 20.3617 30.7346ZM31.6592 30.7346C29.984 30.7346 28.6037 29.1916 28.6037 27.2966C28.6037 25.4016 29.9572 23.8586 31.6592 23.8586C33.3746 23.8586 34.7416 25.4151 34.7148 27.2966C34.7148 29.1916 33.3746 30.7346 31.6592 30.7346Z" fill="#FAFAFA"/>
</g>
<defs>
<clipPath id="clip0_10_867">
<rect width="52" height="52" fill="white"/>
</clipPath>
</defs>
</svg>
