<svg width="120" height="120" viewBox="0 0 120 120" fill="none" xmlns="http://www.w3.org/2000/svg">
<circle cx="60" cy="60" r="52" fill="url(#paint0_linear_1_79)"/>
<path d="M59.6464 68.3536C59.8417 68.5488 60.1583 68.5488 60.3536 68.3536L63.5355 65.1716C63.7308 64.9763 63.7308 64.6597 63.5355 64.4645C63.3403 64.2692 63.0237 64.2692 62.8284 64.4645L60 67.2929L57.1716 64.4645C56.9763 64.2692 56.6597 64.2692 56.4645 64.4645C56.2692 64.6597 56.2692 64.9763 56.4645 65.1716L59.6464 68.3536ZM59.5 51L59.5 68L60.5 68L60.5 51L59.5 51Z" fill="#FAFAFA"/>
<path d="M57.7582 97.5758L57.2651 102.583C57.2465 102.772 57.2933 102.935 57.4054 103.072C57.4148 103.083 57.4355 103.098 57.4677 103.117C57.4998 103.136 57.5135 103.17 57.5086 103.219C57.5038 103.268 57.4845 103.291 57.4508 103.288L56.1913 103.164C56.1576 103.161 56.143 103.136 56.1476 103.089C56.152 103.045 56.1611 103.019 56.1751 103.01C56.1862 103.003 56.2027 102.995 56.2244 102.987C56.2459 102.981 56.2752 102.963 56.3122 102.933C56.3464 102.905 56.3859 102.848 56.4309 102.764C56.4756 102.682 56.5023 102.597 56.511 102.509L57.009 97.4512L54.4277 97.1976C54.1348 97.1688 53.941 97.1838 53.8463 97.2425C53.7965 97.269 53.7568 97.3004 53.7271 97.3368C53.6973 97.3731 53.676 97.3906 53.663 97.3893C53.6472 97.3904 53.6218 97.3827 53.5868 97.3661C53.5492 97.3494 53.5309 97.3358 53.5319 97.3254C53.5329 97.3151 53.5561 97.2663 53.6013 97.1792L53.7567 96.8765C53.8148 96.7645 53.856 96.6782 53.8803 96.6178C53.9017 96.5597 53.9273 96.5256 53.9571 96.5155L58.0779 96.9203C58.1116 96.9236 58.1263 96.9473 58.1219 96.9914C58.1173 97.038 58.1095 97.0647 58.0983 97.0715C58.0843 97.0806 58.0666 97.088 58.0451 97.0937C58.0234 97.1021 57.9954 97.1203 57.9612 97.1483C57.9242 97.1787 57.8834 97.2349 57.8387 97.3168C57.7937 97.4014 57.7669 97.4877 57.7582 97.5758Z" fill="#FAFAFA"/>
<path d="M48.1997 99.0456C48.0158 98.9977 47.8475 99.0185 47.695 99.108C47.6823 99.1154 47.6641 99.1336 47.6404 99.1624C47.6168 99.1912 47.581 99.1994 47.5331 99.1869C47.4852 99.1745 47.4656 99.1519 47.4741 99.1191L47.76 98.023C47.7686 97.9902 47.7955 97.9797 47.8409 97.9915C47.8837 98.0027 47.9089 98.0146 47.9163 98.0273C47.9206 98.0419 47.9252 98.0606 47.93 98.0834C47.9323 98.1055 47.9459 98.1359 47.9707 98.1747C47.9924 98.2153 48.0419 98.2632 48.119 98.3182C48.1936 98.3726 48.2738 98.411 48.3595 98.4333L50.7448 99.0541L51.3916 96.5746L48.8815 95.9213C48.5967 95.8472 48.4166 95.8258 48.3411 95.8573C48.2624 95.8907 48.2056 95.923 48.1705 95.9542C48.1329 95.9848 48.1078 95.9984 48.0952 95.9952C48.0801 95.9912 48.0565 95.9784 48.0245 95.9566C47.99 95.9341 47.9741 95.9179 47.9767 95.9078C47.9793 95.8977 48.0098 95.8532 48.0681 95.7742L48.2689 95.4995C48.3445 95.3954 48.399 95.3154 48.4324 95.2595C48.4627 95.2055 48.493 95.177 48.5233 95.1742L52.5305 96.2171C52.5632 96.2256 52.574 96.2513 52.5628 96.2941C52.551 96.3395 52.5391 96.3646 52.527 96.3695C52.5118 96.3763 52.4931 96.3809 52.471 96.3832C52.4482 96.388 52.4177 96.4016 52.3796 96.424C52.3383 96.4482 52.2891 96.4973 52.2322 96.5713C52.1745 96.6478 52.1346 96.7289 52.1122 96.8146L50.8423 101.683C50.7943 101.867 50.815 102.035 50.9044 102.187C50.9119 102.2 50.93 102.218 50.9588 102.242C50.9877 102.266 50.9958 102.301 50.9833 102.349C50.9709 102.397 50.9482 102.417 50.9155 102.408L46.9083 101.365C46.8831 101.359 46.8702 101.321 46.8697 101.25C46.8685 101.183 46.8603 101.085 46.8452 100.957L46.8041 100.62C46.7918 100.522 46.787 100.469 46.7896 100.459C46.7922 100.449 46.8141 100.442 46.8552 100.439C46.8938 100.436 46.9193 100.436 46.9319 100.439C46.942 100.442 46.9517 100.451 46.961 100.467C46.9697 100.485 46.9799 100.508 46.9916 100.535C47.0002 100.565 47.031 100.612 47.084 100.677C47.1339 100.743 47.3012 100.814 47.586 100.888L50.0961 101.541L50.5851 99.6664L48.1997 99.0456Z" fill="#FAFAFA"/>
<path d="M44.3512 94.186C44.1629 93.9861 43.9579 93.8344 43.7361 93.7308C42.981 93.3783 42.2772 93.3186 41.6249 93.5515C40.9691 93.7856 40.4668 94.2754 40.1181 95.0208C39.9978 95.2779 39.9375 95.5788 39.9372 95.9235C39.9346 96.2672 39.9884 96.607 40.0986 96.9429C40.2077 97.2813 40.3856 97.6014 40.6325 97.9034C40.8769 98.2044 41.1998 98.4485 41.6009 98.6357C42.0021 98.823 42.4283 98.8983 42.8795 98.8618C43.3307 98.8253 43.737 98.6729 44.0982 98.4047C44.4594 98.1365 44.751 97.7653 44.9728 97.2912C45.1935 96.8194 45.2359 96.2802 45.0999 95.6736C44.9616 95.0659 44.712 94.57 44.3512 94.186ZM45.7565 95.0446C45.8916 95.444 45.9488 95.8687 45.928 96.3188C45.906 96.7713 45.8007 97.1992 45.612 97.6025C45.4222 98.0082 45.1604 98.3559 44.8265 98.6455C44.4892 98.9364 44.1236 99.1523 43.7299 99.2932C43.3327 99.4355 42.9138 99.5014 42.473 99.4911C42.0298 99.4797 41.6277 99.3897 41.2666 99.2211C40.9056 99.0526 40.5902 98.8479 40.3205 98.6071C39.7871 98.131 39.4331 97.5419 39.2585 96.8396C39.0804 96.1386 39.152 95.4449 39.4731 94.7585C39.6618 94.3552 39.9154 94.0037 40.2339 93.704C40.5523 93.4043 40.9105 93.1734 41.3083 93.0114C41.7027 92.8506 42.1401 92.7789 42.6208 92.7963C43.099 92.8127 43.5599 92.9244 44.0036 93.1314C44.4472 93.3385 44.8162 93.6099 45.1105 93.9456C45.4049 94.2813 45.6202 94.6476 45.7565 95.0446Z" fill="#FAFAFA"/>
<path d="M32.5336 93.5648C32.516 93.5493 32.5064 93.5268 32.5046 93.4974L32.3108 87.1372L32.2904 87.1191L29.6479 90.0959C29.5234 90.2361 29.4666 90.3963 29.4774 90.5763C29.4783 90.591 29.4862 90.6154 29.5012 90.6495C29.5161 90.6837 29.5072 90.7192 29.4744 90.7562C29.4415 90.7933 29.4124 90.8005 29.3871 90.7781L28.4309 89.9312C28.4055 89.9087 28.4084 89.88 28.4395 89.8449C28.4689 89.8118 28.4919 89.7957 28.5086 89.7965C28.5216 89.7976 28.5393 89.8011 28.5618 89.8072C28.5826 89.8151 28.6169 89.8177 28.6647 89.8148C28.7126 89.8119 28.7796 89.7913 28.8659 89.7529C28.9502 89.7129 29.0218 89.6597 29.0806 89.5935L32.737 85.4744C32.801 85.4024 32.8496 85.3672 32.883 85.3689C32.9143 85.3688 32.9505 85.3869 32.9914 85.4232C33.0324 85.4595 33.0551 85.5005 33.0597 85.5463L33.2761 92.6989L36.3128 89.278C36.4459 89.1281 36.5076 88.9722 36.4979 88.8106C36.497 88.7959 36.4891 88.7715 36.4741 88.7373C36.4592 88.7032 36.4681 88.6676 36.501 88.6306C36.5338 88.5936 36.5629 88.5864 36.5882 88.6088L37.5298 89.4428C37.5552 89.4652 37.5532 89.493 37.5238 89.5261C37.4927 89.5611 37.4706 89.5781 37.4576 89.5771C37.441 89.5762 37.4222 89.5718 37.4015 89.5639C37.3789 89.5578 37.3585 89.5554 37.3401 89.5565C37.1562 89.5675 37.0029 89.6422 36.8801 89.7805L33.54 93.5431C33.4121 93.6872 33.3533 93.8456 33.3637 94.0183C33.3646 94.033 33.3725 94.0574 33.3875 94.0915C33.4025 94.1257 33.3935 94.1612 33.3607 94.1982C33.3278 94.2352 33.2987 94.2425 33.2734 94.2201L32.5336 93.5648Z" fill="#FAFAFA"/>
<path d="M32.0267 84.2013C32.0475 84.228 32.0405 84.255 32.0056 84.2822C31.9687 84.311 31.9439 84.3238 31.9313 84.3204C31.9151 84.3165 31.8975 84.3088 31.8785 84.2972C31.8574 84.2872 31.825 84.2795 31.7811 84.2741C31.7335 84.2682 31.6646 84.2774 31.5744 84.3015C31.4822 84.3273 31.4011 84.3674 31.3313 84.4218L27.3646 87.5168C27.2147 87.6337 27.129 87.7799 27.1074 87.9552C27.1056 87.9698 27.109 87.9953 27.1175 88.0316C27.1261 88.0678 27.1108 88.1012 27.0718 88.1316C27.0328 88.1621 27.0029 88.1639 26.982 88.1373L24.4314 84.8755C24.4153 84.855 24.4284 84.8168 24.4705 84.7608C24.5106 84.7064 24.5635 84.6238 24.629 84.5132L24.8015 84.2201C24.8509 84.1353 24.8797 84.0897 24.8879 84.0833C24.8961 84.0769 24.9174 84.0851 24.9517 84.1079C24.9845 84.1286 25.0048 84.1441 25.0129 84.1543C25.0241 84.1687 25.0233 84.1973 25.0106 84.2403C24.9943 84.2828 24.9864 84.3467 24.9871 84.4321C24.9861 84.5154 25.0771 84.674 25.26 84.9078L26.8577 86.951L28.3853 85.7592L26.8669 83.8176C26.7498 83.6678 26.6035 83.5821 26.4279 83.5606C26.4133 83.5588 26.3878 83.5621 26.3515 83.5706C26.3152 83.5792 26.2818 83.5639 26.2513 83.525C26.2208 83.486 26.2189 83.4561 26.2456 83.4353L27.1388 82.7384C27.1655 82.7176 27.1932 82.7256 27.2221 82.7626C27.2494 82.7974 27.2621 82.8222 27.2603 82.8368C27.2549 82.851 27.2471 82.8685 27.2371 82.8896C27.2255 82.9085 27.2178 82.941 27.214 82.9869C27.2066 83.0323 27.2168 83.1003 27.2447 83.1909C27.2709 83.2794 27.3113 83.3585 27.3658 83.4283L28.8842 85.3699L30.8645 83.8249C31.0144 83.7079 31.1001 83.5618 31.1216 83.3864C31.1234 83.3718 31.1201 83.3464 31.1115 83.3101C31.103 83.2738 31.1182 83.2405 31.1572 83.21C31.1963 83.1796 31.2262 83.1777 31.247 83.2044L32.0267 84.2013Z" fill="#FAFAFA"/>
<path d="M19.952 76.9874C19.9398 76.9644 19.9595 76.9291 20.0109 76.8814C20.06 76.8349 20.1266 76.7631 20.2107 76.6658C20.2107 76.6658 20.2846 76.5798 20.4324 76.4079C20.496 76.3332 20.5324 76.2934 20.5416 76.2885C20.5508 76.2837 20.5703 76.2955 20.6001 76.324C20.6286 76.3501 20.6453 76.3678 20.6502 76.3771C20.6587 76.3932 20.6535 76.4224 20.6346 76.4647C20.6122 76.5059 20.5937 76.5686 20.5793 76.6528C20.5636 76.7346 20.6244 76.9057 20.7617 77.1659L21.7881 79.111L26.2849 76.7434C26.4532 76.6549 26.5634 76.5262 26.6157 76.3574C26.62 76.3433 26.6212 76.3177 26.6192 76.2805C26.6173 76.2433 26.6382 76.2131 26.682 76.1901C26.7257 76.167 26.7555 76.1705 26.7713 76.2004L27.362 77.3197C27.3778 77.3497 27.3661 77.375 27.3269 77.3956C27.2854 77.4174 27.2588 77.4256 27.247 77.42C27.2318 77.4133 27.2158 77.4026 27.1992 77.3878C27.1802 77.3742 27.1496 77.3609 27.1074 77.3478C27.0616 77.3337 26.9922 77.3305 26.8992 77.3383C26.8038 77.3473 26.717 77.3724 26.6386 77.4136L22.1417 79.7812L23.1681 81.7262C23.3395 82.051 23.4981 82.2176 23.6439 82.2262C23.707 82.2342 23.7434 82.2444 23.753 82.2571C23.7603 82.2709 23.7673 82.2981 23.774 82.3387C23.7795 82.377 23.7776 82.3986 23.7684 82.4034C23.7592 82.4083 23.7057 82.4158 23.6081 82.426L23.2698 82.4629C23.1442 82.476 23.0513 82.4896 22.991 82.5037C22.9271 82.5167 22.8828 82.5136 22.8579 82.4943L19.952 76.9874Z" fill="#FAFAFA"/>
<path d="M18.1867 70.1966C18.1637 70.368 18.161 70.4997 18.1786 70.5918C18.205 70.73 18.2336 70.8385 18.2646 70.9174C18.293 70.9969 18.3016 71.0416 18.2902 71.0517C18.2789 71.0618 18.2604 71.0693 18.2349 71.0742C18.2093 71.0791 18.1807 71.0752 18.1492 71.0627C18.1176 71.0501 18.0968 71.0316 18.0868 71.0069C17.9271 70.6424 17.784 70.1288 17.6576 69.4663L20.4366 66.941L20.4293 66.9026L16.9312 65.66C16.8048 64.9975 16.7487 64.4673 16.763 64.0696C16.764 64.0058 16.8055 63.9661 16.8874 63.9505C16.9334 63.9417 16.9579 63.9795 16.9607 64.0638C16.961 64.1486 16.974 64.2588 16.9999 64.3943C17.0258 64.5299 17.0828 64.6688 17.1709 64.8111L22.2728 63.0802C22.5397 62.9923 22.6914 62.8772 22.7279 62.7351C22.7369 62.6989 22.7657 62.6762 22.8143 62.667C22.8629 62.6577 22.8904 62.6697 22.8967 62.703L23.1406 63.9807C23.1469 64.0139 23.1284 64.0347 23.0849 64.043C23.0388 64.0517 23.011 64.0517 23.0014 64.043C22.9887 64.0321 22.9753 64.0175 22.9611 63.9989C22.9203 63.9378 22.8351 63.8944 22.7056 63.8686C22.5731 63.8409 22.485 63.8311 22.4416 63.8394C22.3955 63.8482 22.365 63.8553 22.3502 63.8608L17.9093 65.3465L17.913 65.3657L21.5902 66.6299C21.6044 66.6352 21.6186 66.6815 21.6326 66.769C21.6462 66.8539 21.6496 66.8996 21.6429 66.9062L18.7045 69.5135L18.7111 69.548L23.3775 69.2441C23.4618 69.2413 23.5558 69.2062 23.6596 69.1387C23.7608 69.0717 23.8239 69.0199 23.8487 68.9834C23.8735 68.9468 23.8905 68.9105 23.8995 68.8743C23.9085 68.8381 23.9373 68.8154 23.9859 68.8062C24.0345 68.7969 24.062 68.8089 24.0683 68.8422L24.2916 70.0125C24.298 70.0457 24.2794 70.0665 24.2359 70.0748C24.1899 70.0835 24.162 70.0835 24.1524 70.0747C24.1397 70.0639 24.1263 70.0492 24.1122 70.0307C24.0381 69.9202 23.8582 69.8736 23.5725 69.8909L18.1867 70.1966Z" fill="#FAFAFA"/>
<path d="M16.6804 61.7015L16.6458 60.4364C16.6449 60.4025 16.6679 60.385 16.7147 60.3837C16.759 60.3825 16.7865 60.3883 16.7973 60.401C16.8054 60.4112 16.8149 60.4266 16.8259 60.4471C16.8343 60.4677 16.8558 60.4945 16.8906 60.5274C16.9227 60.5578 16.9835 60.59 17.073 60.624C17.1599 60.6581 17.2476 60.674 17.3361 60.6716L22.3655 60.5345C22.5555 60.5293 22.7113 60.4626 22.8328 60.3342C22.843 60.3235 22.8554 60.301 22.8701 60.2667C22.8848 60.2325 22.9169 60.2147 22.9663 60.2133C23.0158 60.212 23.041 60.2282 23.0419 60.2621L23.0765 61.5272C23.0774 61.5611 23.0557 61.5786 23.0115 61.5798C22.9646 61.5811 22.9371 61.5766 22.929 61.5664C22.9183 61.5537 22.9087 61.537 22.9003 61.5164C22.8893 61.4958 22.8678 61.4704 22.8357 61.44C22.8009 61.4071 22.7401 61.3736 22.6532 61.3395C22.5637 61.3054 22.4747 61.2896 22.3862 61.292L17.3568 61.4291C17.1668 61.4343 17.011 61.501 16.8894 61.6294C16.8793 61.6401 16.8669 61.6626 16.8522 61.6968C16.8375 61.7311 16.8054 61.7489 16.756 61.7503C16.7065 61.7516 16.6813 61.7354 16.6804 61.7015Z" fill="#FAFAFA"/>
<path d="M16.7606 56.4833C16.7635 56.46 16.7765 56.4393 16.7997 56.4211L21.9268 52.6449L21.9301 52.6178L17.9787 52.1375C17.7925 52.1149 17.6284 52.1592 17.4863 52.2705C17.4747 52.2796 17.4591 52.3 17.4395 52.3317C17.4199 52.3634 17.3856 52.3763 17.3364 52.3703C17.2873 52.3644 17.2648 52.3446 17.2689 52.311L17.4234 51.043C17.4275 51.0094 17.4528 50.9954 17.4993 51.0011C17.5433 51.0064 17.5696 51.0162 17.5784 51.0304C17.5849 51.0417 17.592 51.0583 17.5999 51.0802C17.6051 51.1018 17.6225 51.1315 17.652 51.1692C17.6815 51.2069 17.7365 51.2503 17.8171 51.2994C17.898 51.346 17.9824 51.3746 18.0703 51.3853L23.5379 52.0498C23.6335 52.0615 23.6901 52.0815 23.7077 52.1098C23.7255 52.1356 23.7311 52.1756 23.7245 52.2299C23.7179 52.2842 23.697 52.3263 23.6619 52.3561L17.8953 56.6015L22.4361 57.1534C22.6352 57.1776 22.7985 57.1397 22.9261 57.0398C22.9377 57.0307 22.9533 57.0103 22.9729 56.9786C22.9925 56.9469 23.0269 56.934 23.076 56.94C23.1251 56.946 23.1476 56.9657 23.1435 56.9993L22.9914 58.2479C22.9873 58.2815 22.9633 58.2957 22.9193 58.2903C22.8728 58.2847 22.8463 58.2762 22.8398 58.2649C22.831 58.2507 22.824 58.2328 22.8188 58.2112C22.811 58.1893 22.8014 58.1711 22.79 58.1566C22.6765 58.0116 22.528 57.928 22.3445 57.9056L17.35 57.2986C17.1587 57.2754 16.9949 57.3171 16.8586 57.4238C16.847 57.4329 16.8314 57.4533 16.8117 57.485C16.7921 57.5168 16.7578 57.5296 16.7087 57.5237C16.6595 57.5177 16.637 57.4979 16.6411 57.4643L16.7606 56.4833Z" fill="#FAFAFA"/>
<path d="M20.0064 42.9112C20.0146 42.8865 20.0537 42.8762 20.1237 42.8801C20.1913 42.8833 20.2893 42.8815 20.4178 42.8747C20.4178 42.8747 20.531 42.8683 20.7575 42.8556C20.8555 42.8497 20.9095 42.8483 20.9194 42.8516C20.9293 42.8549 20.9342 42.8771 20.9343 42.9183C20.9351 42.957 20.9339 42.9813 20.9307 42.9912C20.9249 43.0085 20.9002 43.025 20.8566 43.0407C20.8113 43.0531 20.7533 43.0833 20.6825 43.1311C20.6125 43.1765 20.5312 43.3389 20.4384 43.6182L19.7452 45.7053L24.5693 47.3038C24.7498 47.3636 24.919 47.3538 25.0771 47.2745C25.0903 47.2679 25.1096 47.251 25.1351 47.2238C25.1606 47.1966 25.1968 47.1907 25.2438 47.2063C25.2908 47.2219 25.3089 47.2457 25.2983 47.2778L24.8993 48.479C24.8887 48.5111 24.8623 48.5202 24.8203 48.5063C24.7758 48.4915 24.7515 48.478 24.7474 48.4656C24.7416 48.45 24.7383 48.4311 24.7374 48.4088C24.7341 48.3858 24.7225 48.3545 24.7027 48.315C24.6812 48.2723 24.6355 48.2201 24.5654 48.1584C24.4928 48.096 24.4145 48.0508 24.3305 48.023L19.5064 46.4245L18.8132 48.5116C18.6975 48.8601 18.687 49.0898 18.7819 49.2008C18.8198 49.2518 18.8376 49.2851 18.8351 49.3007C18.8302 49.3155 18.8154 49.3394 18.7907 49.3724C18.7669 49.4029 18.75 49.4165 18.7401 49.4133C18.7303 49.41 18.6878 49.3767 18.6128 49.3134L18.3518 49.0953C18.2554 49.014 18.1812 48.9564 18.1292 48.9228C18.0756 48.8858 18.0472 48.8517 18.0439 48.8204L20.0064 42.9112Z" fill="#FAFAFA"/>
<path d="M29.4807 37.9701L25.5157 34.873C25.3659 34.7559 25.2032 34.7082 25.0276 34.7297C25.013 34.7314 24.9891 34.7409 24.9559 34.7579C24.9227 34.7749 24.8866 34.7682 24.8476 34.7378C24.8086 34.7073 24.7996 34.6787 24.8204 34.6521L25.6006 33.6555C25.6215 33.6289 25.6504 33.63 25.6873 33.6588C25.7222 33.6861 25.7398 33.708 25.7399 33.7247C25.7397 33.7377 25.7372 33.7556 25.7326 33.7785C25.7259 33.7997 25.7255 33.834 25.7313 33.8815C25.7366 33.9254 25.763 33.9889 25.8103 34.0721C25.8555 34.1537 25.9131 34.2218 25.9828 34.2763L29.9879 37.4046L31.5868 35.3623C31.7682 35.1306 31.8595 34.9591 31.8607 34.8477C31.865 34.7915 31.8597 34.7412 31.845 34.6966C31.8303 34.6521 31.8269 34.6247 31.835 34.6144C31.8425 34.6005 31.8627 34.5832 31.8954 34.5625C31.9298 34.5398 31.951 34.5316 31.9593 34.538C31.9675 34.5444 31.9962 34.59 32.0456 34.6749L32.2179 34.9681C32.2814 35.0771 32.3321 35.158 32.3701 35.2109C32.4077 35.26 32.4228 35.2999 32.4154 35.3305L29.8629 38.5908C29.842 38.6175 29.8142 38.6172 29.7793 38.5899C29.7423 38.5611 29.724 38.5401 29.7243 38.5271C29.7241 38.5105 29.7273 38.4915 29.734 38.4703C29.7386 38.4475 29.7383 38.4142 29.7329 38.3703C29.7271 38.3228 29.7016 38.2583 29.6563 38.1767C29.609 38.0934 29.5505 38.0246 29.4807 37.9701Z" fill="#FAFAFA"/>
<path d="M33.3651 29.1232C33.5043 28.9936 33.5769 28.8406 33.5831 28.664C33.5837 28.6493 33.5781 28.6242 33.5664 28.5888C33.5548 28.5534 33.567 28.5189 33.6033 28.4852C33.6395 28.4515 33.6691 28.447 33.6922 28.4717L34.4651 29.2999C34.4882 29.3247 34.4826 29.353 34.4483 29.385C34.4159 29.4151 34.3923 29.43 34.3776 29.4294C34.363 29.4252 34.3448 29.4191 34.3229 29.4109C34.303 29.401 34.27 29.3962 34.2239 29.3964C34.1779 29.393 34.111 29.409 34.0231 29.4446C33.9371 29.4784 33.8617 29.5255 33.7969 29.5858L31.9929 31.2655L33.7412 33.1389L35.6395 31.3714C35.8549 31.1709 35.9695 31.0304 35.9834 30.9498C35.9974 30.8656 36.0007 30.8004 35.9931 30.7541C35.9874 30.706 35.9893 30.6775 35.9988 30.6686C36.0103 30.658 36.0338 30.645 36.0693 30.6297C36.1068 30.6126 36.1291 30.6078 36.1362 30.6155C36.1433 30.6231 36.1646 30.6726 36.2001 30.7641L36.3245 31.0806C36.3719 31.2001 36.4103 31.2889 36.4396 31.3471C36.469 31.4015 36.4768 31.4423 36.463 31.4694L33.4325 34.291C33.4077 34.3141 33.3802 34.3094 33.35 34.277C33.3181 34.2428 33.3032 34.2192 33.3055 34.2064C33.3079 34.1899 33.3141 34.1717 33.324 34.1518C33.3322 34.13 33.337 34.097 33.3386 34.0529C33.3402 34.0051 33.3251 33.9373 33.2932 33.8497C33.2594 33.7601 33.2124 33.6829 33.152 33.6182L29.7193 29.9398C29.5896 29.8008 29.4364 29.7282 29.2596 29.722C29.2449 29.7215 29.2198 29.7271 29.1843 29.7387C29.1489 29.7504 29.1143 29.7381 29.0806 29.7019C29.0468 29.6658 29.0423 29.6361 29.0671 29.6131L32.0975 26.7915C32.1166 26.7738 32.1559 26.7834 32.2154 26.8205C32.2732 26.8557 32.3601 26.9011 32.4761 26.9567L32.7835 27.1029C32.8723 27.1447 32.9203 27.1694 32.9274 27.177C32.9345 27.1846 32.9282 27.2065 32.9085 27.2426C32.8907 27.277 32.8771 27.2986 32.8675 27.3075C32.8599 27.3146 32.8469 27.3178 32.8285 27.3171C32.8083 27.3146 32.7835 27.311 32.7542 27.3062C32.725 27.2979 32.6687 27.2986 32.5854 27.3086C32.5022 27.3149 32.353 27.4183 32.1376 27.6188L30.2393 29.3863L31.5612 30.8028L33.3651 29.1232Z" fill="#FAFAFA"/>
<path d="M39.5349 28.4842C39.8048 28.4326 40.043 28.341 40.2494 28.2094C40.9521 27.7615 41.3799 27.2001 41.5327 26.5251C41.6864 25.8466 41.5417 25.1606 41.0986 24.4671C40.9458 24.2279 40.7238 24.0159 40.4325 23.8309C40.1435 23.6445 39.8275 23.5078 39.4845 23.4208C39.14 23.3315 38.774 23.31 38.3864 23.3564C38.001 23.4013 37.6217 23.5427 37.2484 23.7807C36.8751 24.0187 36.5829 24.3377 36.3719 24.7378C36.1609 25.1379 36.0719 25.5621 36.1049 26.0105C36.138 26.4588 36.2954 26.9035 36.5772 27.3446C36.8576 27.7835 37.2907 28.1082 37.8763 28.3186C38.4641 28.5276 39.0169 28.5828 39.5349 28.4842ZM38.0559 29.2093C37.6459 29.1093 37.2563 28.9299 36.8871 28.6712C36.5164 28.4103 36.2112 28.0922 35.9714 27.7169C35.7303 27.3395 35.5768 26.9324 35.511 26.4956C35.446 26.0553 35.4594 25.6313 35.5513 25.2238C35.644 24.8126 35.8129 24.424 36.0579 24.0578C36.3052 23.6902 36.5968 23.3993 36.9328 23.1851C37.2687 22.9709 37.6108 22.8147 37.9589 22.7163C38.6472 22.5215 39.335 22.5386 40.0221 22.7677C40.71 22.9931 41.258 23.4252 41.666 24.0638C41.9058 24.439 42.0669 24.8412 42.1495 25.2703C42.2321 25.6995 42.2352 26.1252 42.1589 26.5475C42.0834 26.9662 41.9095 27.3736 41.6371 27.7696C41.3669 28.1641 41.0254 28.493 40.6126 28.7562C40.1998 29.0193 39.7726 29.1851 39.3311 29.2534C38.8896 29.3218 38.4645 29.3071 38.0559 29.2093Z" fill="#FAFAFA"/>
<path d="M46.3939 18.8534C46.4165 18.8469 46.4406 18.8508 46.4664 18.8651L51.9448 22.1127L51.9711 22.1052L50.8708 18.2798C50.8189 18.0996 50.7141 17.9658 50.5561 17.8784C50.5432 17.8712 50.5184 17.8648 50.4815 17.8591C50.4446 17.8535 50.4194 17.8269 50.4057 17.7793C50.392 17.7318 50.4014 17.7033 50.434 17.694L51.6618 17.3416C51.6943 17.3323 51.7171 17.3501 51.73 17.3952C51.7423 17.4377 51.7436 17.4658 51.7339 17.4794C51.7261 17.4898 51.7136 17.5029 51.6964 17.5186C51.6786 17.5319 51.658 17.5594 51.6349 17.6013C51.6117 17.6432 51.5932 17.7108 51.5794 17.8042C51.5681 17.8968 51.5747 17.9857 51.5992 18.0708L53.1217 23.364C53.1483 23.4566 53.152 23.5165 53.1327 23.5437C53.1159 23.5702 53.0813 23.591 53.0287 23.606C52.9761 23.6211 52.9293 23.6183 52.8881 23.5976L46.728 19.9442L47.9924 24.3402C48.0479 24.5329 48.1465 24.6685 48.2883 24.747C48.3012 24.7541 48.3261 24.7605 48.3629 24.7662C48.3998 24.7719 48.425 24.7985 48.4387 24.846C48.4524 24.8936 48.443 24.922 48.4104 24.9314L47.2014 25.2783C47.1689 25.2877 47.1465 25.2711 47.1342 25.2285C47.1213 25.1835 47.1187 25.1558 47.1266 25.1454C47.1362 25.1318 47.15 25.1184 47.1678 25.1051C47.185 25.0893 47.198 25.0734 47.2069 25.0573C47.2961 24.8963 47.3151 24.7269 47.264 24.5492L45.8733 19.714C45.82 19.5288 45.7176 19.3942 45.5661 19.3104C45.5532 19.3032 45.5284 19.2968 45.4915 19.2912C45.4546 19.2855 45.4294 19.2589 45.4157 19.2113C45.402 19.1638 45.4115 19.1353 45.444 19.126L46.3939 18.8534Z" fill="#FAFAFA"/>
<path d="M54.5803 23.4492C54.5466 23.4525 54.5276 23.4321 54.5233 23.388C54.5187 23.3414 54.5212 23.3137 54.5308 23.3049C54.5428 23.2933 54.5587 23.2825 54.5787 23.2727C54.5984 23.2603 54.6223 23.2371 54.6504 23.2029C54.6808 23.166 54.7099 23.1029 54.7378 23.0138C54.7655 22.9222 54.775 22.8323 54.7664 22.7442L54.2761 17.7369C54.2575 17.5477 54.18 17.3969 54.0434 17.2847C54.032 17.2753 54.0087 17.2645 53.9735 17.2523C53.9383 17.24 53.9183 17.2093 53.9134 17.16C53.9086 17.1108 53.9231 17.0845 53.9568 17.0812L58.0778 16.6786C58.1037 16.6761 58.129 16.7076 58.1537 16.7732C58.1782 16.8363 58.2196 16.9251 58.278 17.0398L58.4332 17.3425C58.4784 17.4297 58.5015 17.4784 58.5025 17.4888C58.5035 17.4992 58.4852 17.5127 58.4476 17.5295C58.4126 17.546 58.3886 17.5549 58.3756 17.5562C58.3575 17.5579 58.3337 17.5419 58.3042 17.5082C58.2771 17.4716 58.2273 17.4307 58.1548 17.3854C58.0849 17.3399 57.9023 17.3316 57.6068 17.3605L55.0253 17.6126L55.2142 19.5409L57.6673 19.3013C57.8565 19.2828 58.0072 19.2053 58.1195 19.0687C58.1288 19.0573 58.1396 19.034 58.1519 18.9988C58.1641 18.9636 58.1949 18.9436 58.2441 18.9388C58.2934 18.934 58.3196 18.9484 58.3229 18.9821L58.4333 20.1095C58.4366 20.1432 58.4149 20.1623 58.3683 20.1669C58.3242 20.1712 58.2965 20.1687 58.2851 20.1593C58.2761 20.1471 58.2654 20.1312 58.253 20.1114C58.2432 20.0915 58.2199 20.0676 58.1831 20.0398C58.1487 20.0091 58.0858 19.9812 57.9944 19.9562C57.9056 19.9308 57.8171 19.9225 57.729 19.9311L55.2758 20.1707L55.5206 22.6705C55.5391 22.8597 55.6167 23.0104 55.7533 23.1227C55.7646 23.132 55.7879 23.1428 55.8232 23.1551C55.8584 23.1673 55.8784 23.1981 55.8832 23.2473C55.888 23.2966 55.8736 23.3228 55.8399 23.3261L54.5803 23.4492Z" fill="#FAFAFA"/>
<path d="M67.1429 17.1296C67.1689 17.1317 67.1882 17.1672 67.2009 17.2362C67.2139 17.3025 67.2389 17.3973 67.276 17.5205C67.276 17.5205 67.309 17.6289 67.3751 17.8459C67.4041 17.9397 67.4182 17.9918 67.4174 18.0021C67.4165 18.0125 67.3961 18.0226 67.3561 18.0325C67.3187 18.0425 67.2949 18.0471 67.2845 18.0463C67.2663 18.0448 67.2444 18.0248 67.2188 17.9861C67.196 17.9451 67.1529 17.8959 67.0896 17.8385C67.0289 17.7814 66.8519 17.741 66.5586 17.7173L64.3665 17.5404L63.9576 22.6059C63.9423 22.7954 63.992 22.9575 64.1065 23.0921C64.116 23.1033 64.1371 23.1181 64.1696 23.1364C64.202 23.1547 64.2163 23.1885 64.2123 23.2378C64.2083 23.2871 64.1895 23.3104 64.1557 23.3077L62.8942 23.2059C62.8605 23.2032 62.8454 23.1797 62.8489 23.1356C62.8527 23.0889 62.8601 23.0621 62.8711 23.0551C62.8849 23.0458 62.9025 23.0381 62.9239 23.0319C62.9455 23.0232 62.9732 23.0046 63.0068 22.9759C63.0433 22.9449 63.0831 22.888 63.1264 22.8053C63.1699 22.72 63.1952 22.6332 63.2023 22.5449L63.6111 17.4794L61.4191 17.3025C61.0531 17.2729 60.8274 17.3174 60.7421 17.4359C60.7015 17.4849 60.6734 17.5101 60.6576 17.5114C60.642 17.5101 60.6153 17.5015 60.5774 17.4853C60.5421 17.4694 60.5249 17.4563 60.5257 17.4459C60.5266 17.4355 60.5488 17.3864 60.5925 17.2984L60.7425 16.9931C60.7987 16.8801 60.837 16.7943 60.8573 16.7359C60.8805 16.6751 60.9069 16.6393 60.9365 16.6286L67.1429 17.1296Z" fill="#FAFAFA"/>
<path d="M73.8314 19.2796C73.699 19.1684 73.5892 19.0956 73.502 19.0611C73.3713 19.0093 73.2643 18.9754 73.181 18.9592C73.0988 18.9407 73.0564 18.9239 73.0539 18.9089C73.0515 18.8939 73.055 18.8743 73.0646 18.8501C73.0742 18.8259 73.0928 18.8039 73.1203 18.7839C73.1478 18.764 73.1746 18.7564 73.2008 18.7612C73.5942 18.8217 74.1045 18.976 74.7316 19.2242L75.3738 22.9233L75.4102 22.9377L78.3347 20.6503C78.9618 20.8985 79.4395 21.1352 79.7676 21.3603C79.8209 21.3954 79.8322 21.4517 79.8015 21.5291C79.7842 21.5727 79.7392 21.5731 79.6665 21.5303C79.5948 21.4851 79.4948 21.4371 79.3665 21.3864C79.2381 21.3356 79.0903 21.3092 78.9229 21.3074L77.6491 26.5419C77.5802 26.8143 77.596 27.004 77.6964 27.111C77.7222 27.138 77.7259 27.1745 77.7077 27.2205C77.6894 27.2665 77.6645 27.2832 77.6331 27.2708L76.4236 26.7921C76.3921 26.7796 76.3845 26.7528 76.4008 26.7117C76.4181 26.6681 76.4331 26.6446 76.4456 26.6412C76.4616 26.6363 76.4812 26.6328 76.5044 26.6308C76.5779 26.6291 76.6602 26.5805 76.7514 26.4849C76.8459 26.3879 76.9013 26.3188 76.9176 26.2776C76.9349 26.2341 76.9452 26.2045 76.9486 26.1891L78.075 21.644L78.0568 21.6368L75.0181 24.0638C75.006 24.0731 74.9593 24.0602 74.8779 24.0252C74.799 23.9911 74.7585 23.9695 74.7565 23.9603L74.1305 20.0828L74.0978 20.0699L71.8527 24.1722C71.8099 24.2448 71.7891 24.343 71.7905 24.4668C71.7928 24.5881 71.8027 24.6691 71.8202 24.7096C71.8377 24.7502 71.8594 24.7839 71.8851 24.8109C71.9108 24.8379 71.9145 24.8744 71.8963 24.9204C71.878 24.9664 71.8532 24.9831 71.8217 24.9707L70.7139 24.5322C70.6824 24.5198 70.6749 24.493 70.6912 24.4518C70.7085 24.4082 70.7234 24.3847 70.736 24.3813C70.7519 24.3764 70.7715 24.373 70.7947 24.371C70.9277 24.3676 71.0635 24.2407 71.2021 23.9903L73.8314 19.2796Z" fill="#FAFAFA"/>
<path d="M81.8201 22.5624L82.9071 23.2108C82.9362 23.2281 82.9387 23.2569 82.9146 23.2972C82.8919 23.3352 82.8723 23.3553 82.8557 23.3576C82.8428 23.3589 82.8247 23.3587 82.8015 23.357C82.7796 23.353 82.7454 23.3569 82.6989 23.3686C82.6561 23.3794 82.5962 23.4135 82.5195 23.4708C82.4441 23.5259 82.3837 23.5915 82.3382 23.6675L79.7565 27.9858C79.6589 28.149 79.6318 28.3162 79.675 28.4875C79.6786 28.5018 79.6909 28.5243 79.712 28.5551C79.733 28.5858 79.7308 28.6224 79.7055 28.6649C79.6801 28.7074 79.6528 28.7199 79.6238 28.7026L78.5368 28.0542C78.5077 28.0369 78.5046 28.0092 78.5273 27.9712C78.5513 27.931 78.5698 27.9102 78.5828 27.9088C78.5993 27.9065 78.6185 27.9074 78.6404 27.9114C78.6637 27.9131 78.6967 27.9085 78.7396 27.8977C78.786 27.886 78.847 27.8526 78.9224 27.7975C78.9991 27.7402 79.0602 27.6736 79.1057 27.5976L81.6874 23.2792C81.785 23.1161 81.8121 22.9488 81.7689 22.7775C81.7653 22.7632 81.753 22.7407 81.7319 22.71C81.7109 22.6792 81.7131 22.6426 81.7384 22.6001C81.7638 22.5577 81.7911 22.5451 81.8201 22.5624Z" fill="#FAFAFA"/>
<path d="M86.1874 25.4251C86.2056 25.4399 86.2161 25.462 86.219 25.4913L86.6587 31.8393L86.6798 31.8566L89.2051 28.7797C89.3241 28.6348 89.3747 28.4726 89.3569 28.2931C89.3555 28.2785 89.3466 28.2544 89.3303 28.2209C89.314 28.1873 89.3216 28.1514 89.353 28.1132C89.3844 28.075 89.4132 28.0666 89.4394 28.088L90.4276 28.8973C90.4538 28.9187 90.4521 28.9476 90.4223 28.9838C90.3942 29.018 90.3718 29.035 90.3552 29.0348C90.3421 29.0343 90.3243 29.0314 90.3015 29.0263C90.2805 29.0191 90.2461 29.0179 90.1984 29.0226C90.1508 29.0273 90.0846 29.0505 89.9998 29.0922C89.9171 29.1355 89.8476 29.1914 89.7915 29.2599L86.2972 33.5173C86.236 33.5918 86.1888 33.6288 86.1554 33.6285C86.1241 33.6297 86.0872 33.613 86.0449 33.5784C86.0026 33.5437 85.9783 33.5036 85.9719 33.458L85.4789 26.3191L82.5769 29.8549C82.4497 30.0099 82.3941 30.168 82.41 30.3292C82.4115 30.3438 82.4203 30.3679 82.4366 30.4014C82.4529 30.435 82.4453 30.4709 82.414 30.5091C82.3826 30.5474 82.3538 30.5557 82.3276 30.5343L81.3544 29.7374C81.3282 29.716 81.3292 29.6881 81.3573 29.6539C81.387 29.6177 81.4084 29.5998 81.4214 29.6004C81.4381 29.6006 81.457 29.6043 81.478 29.6114C81.5008 29.6166 81.5213 29.6182 81.5396 29.6164C81.723 29.5983 81.8733 29.5177 81.9906 29.3748L85.1825 25.4857C85.3048 25.3368 85.3574 25.1762 85.3404 25.0041C85.3389 24.9894 85.33 24.9653 85.3138 24.9318C85.2975 24.8983 85.305 24.8624 85.3364 24.8241C85.3678 24.7859 85.3966 24.7775 85.4228 24.7989L86.1874 25.4251Z" fill="#FAFAFA"/>
<path d="M95.9189 35.4343C95.9354 35.4544 95.9232 35.4929 95.8823 35.5499C95.8434 35.6051 95.7923 35.6888 95.7292 35.8008C95.7292 35.8008 95.6738 35.8997 95.5631 36.0976C95.5156 36.1834 95.4878 36.2296 95.4797 36.2362C95.4716 36.2428 95.4502 36.2351 95.4154 36.2131C95.3822 36.1931 95.3623 36.179 95.3557 36.171C95.3442 36.1569 95.3435 36.1272 95.3536 36.082C95.3674 36.0371 95.373 35.972 95.3705 35.8867C95.3697 35.8034 95.2761 35.6478 95.0898 35.42L93.6977 33.7174L89.7599 36.93C89.6126 37.0501 89.5301 37.1981 89.5123 37.3739C89.5108 37.3886 89.5148 37.4139 89.5241 37.45C89.5334 37.4861 89.5189 37.5198 89.4806 37.5511C89.4422 37.5823 89.4123 37.5849 89.3909 37.5587L88.5898 36.5789C88.5683 36.5527 88.5748 36.5256 88.6091 36.4976C88.6454 36.4679 88.6699 36.4547 88.6825 36.4578C88.6988 36.4613 88.7166 36.4687 88.7359 36.4798C88.7571 36.4894 88.7897 36.4964 88.8337 36.5008C88.8814 36.5056 88.9501 36.495 89.0397 36.4689C89.1314 36.4411 89.2116 36.3993 89.2802 36.3433L93.218 33.1308L91.8259 31.4283C91.5935 31.144 91.405 31.0121 91.2603 31.0327C91.1969 31.0374 91.1592 31.0345 91.1473 31.0241C91.1374 31.012 91.1251 30.9867 91.1105 30.9482C91.0975 30.9118 91.095 30.8902 91.1031 30.8837C91.1112 30.8771 91.1621 30.8591 91.2558 30.8297L91.5801 30.7264C91.7005 30.6887 91.7889 30.6569 91.8452 30.6311C91.9052 30.6057 91.9493 30.6 91.9775 30.6139L95.9189 35.4343Z" fill="#FAFAFA"/>
<path d="M95.0222 46.0723L99.7635 44.389C99.9426 44.3254 100.07 44.2138 100.146 44.0542C100.152 44.0409 100.157 44.0157 100.161 43.9786C100.164 43.9414 100.189 43.9146 100.236 43.8981C100.282 43.8815 100.311 43.8892 100.323 43.9211L100.747 45.1134C100.758 45.1453 100.742 45.1691 100.698 45.1848C100.656 45.1996 100.628 45.2026 100.614 45.1939C100.603 45.1867 100.589 45.175 100.572 45.1588C100.558 45.1418 100.529 45.123 100.486 45.1025C100.446 45.0835 100.378 45.0716 100.283 45.0669C100.189 45.0613 100.101 45.0733 100.018 45.1029L95.2284 46.8032L96.0979 49.2469C96.1966 49.5241 96.2927 49.6931 96.3861 49.7539C96.4313 49.7876 96.4767 49.8102 96.5222 49.8217C96.5677 49.8331 96.5927 49.845 96.5971 49.8573C96.6048 49.8711 96.6086 49.8974 96.6085 49.9361C96.6094 49.9772 96.6049 49.9996 96.595 50.0031C96.5852 50.0065 96.5313 50.0064 96.4331 50.0025L96.0931 49.9906C95.9669 49.9856 95.8713 49.985 95.8063 49.9888C95.7446 49.9941 95.7029 49.9854 95.681 49.9628L94.2929 46.0618C94.2815 46.0299 94.2967 46.0065 94.3384 45.9917C94.3826 45.9761 94.4101 45.9718 94.421 45.979C94.4351 45.9878 94.4494 46.0007 94.4637 46.0177C94.4805 46.0338 94.5089 46.0514 94.5488 46.0704C94.5921 46.091 94.6603 46.104 94.7535 46.1096C94.8492 46.1144 94.9387 46.1019 95.0222 46.0723Z" fill="#FAFAFA"/>
<path d="M100.419 54.0916C100.454 54.2785 100.544 54.4219 100.69 54.5218C100.702 54.5301 100.726 54.5389 100.762 54.548C100.799 54.5572 100.821 54.5861 100.83 54.6347C100.839 54.6833 100.827 54.7108 100.794 54.717L99.6805 54.9248C99.6472 54.931 99.6262 54.911 99.6176 54.865C99.6095 54.8214 99.6096 54.7936 99.6179 54.7815C99.6293 54.7714 99.6442 54.7593 99.6628 54.7453C99.6818 54.7338 99.7036 54.7085 99.7281 54.6695C99.7556 54.6326 99.7779 54.5675 99.7949 54.4743C99.8124 54.3836 99.813 54.2947 99.7967 54.2077L99.3436 51.7848L96.8246 52.2548L97.3014 54.8044C97.3555 55.0937 97.4128 55.2657 97.4734 55.3207C97.5371 55.3777 97.5905 55.4154 97.6337 55.4338C97.6773 55.4548 97.7004 55.4717 97.7028 55.4845C97.7056 55.4999 97.704 55.5267 97.6979 55.5649C97.6923 55.6057 97.6844 55.627 97.6741 55.6289C97.6639 55.6308 97.6106 55.6222 97.5143 55.6031L97.1803 55.5383C97.0539 55.5142 96.9584 55.4989 96.8936 55.4924C96.8318 55.4881 96.7932 55.4728 96.7777 55.4465L96.0165 51.3764C96.0103 51.3432 96.029 51.3225 96.0725 51.3143C96.1186 51.3057 96.1464 51.3059 96.156 51.3147C96.1686 51.3255 96.1807 51.3405 96.1922 51.3596C96.2063 51.3781 96.2315 51.3999 96.268 51.4249C96.3075 51.452 96.3728 51.4755 96.464 51.4956C96.5578 51.5152 96.6482 51.5169 96.7352 51.5006L101.681 50.5778C101.868 50.5429 102.011 50.4526 102.111 50.3068C102.12 50.2947 102.128 50.2705 102.137 50.2344C102.147 50.1982 102.175 50.1756 102.224 50.1665C102.273 50.1575 102.3 50.1696 102.306 50.2028L103.068 54.2729C103.072 54.2985 103.043 54.3265 102.98 54.3568C102.919 54.3867 102.834 54.4356 102.725 54.5037L102.437 54.6846C102.354 54.7371 102.308 54.7644 102.297 54.7663C102.287 54.7682 102.272 54.7511 102.252 54.7151C102.233 54.6817 102.222 54.6586 102.219 54.6458C102.217 54.6355 102.222 54.6228 102.232 54.6076C102.245 54.592 102.261 54.573 102.281 54.5508C102.304 54.5307 102.333 54.4828 102.369 54.4071C102.409 54.3336 102.401 54.1522 102.347 53.8629L101.87 51.3134L99.9657 51.6688L100.419 54.0916Z" fill="#FAFAFA"/>
<path d="M97.6558 59.6381C97.5549 59.8936 97.5047 60.1437 97.5053 60.3885C97.5073 61.2218 97.7524 61.884 98.2405 62.375C98.7313 62.8686 99.3881 63.1144 100.211 63.1125C100.495 63.1118 100.793 63.0382 101.105 62.8916C101.417 62.7476 101.702 62.5542 101.959 62.3114C102.219 62.0686 102.433 61.7712 102.602 61.4192C102.77 61.0699 102.854 60.6738 102.853 60.2311C102.852 59.7884 102.739 59.3707 102.514 58.978C102.289 58.5853 101.978 58.2827 101.582 58.0701C101.185 57.8575 100.726 57.7518 100.202 57.7531C99.6813 57.7543 99.1752 57.9457 98.684 58.327C98.1927 58.711 97.85 59.1481 97.6558 59.6381ZM97.8355 58.0009C98.1395 57.7086 98.4996 57.4759 98.9159 57.303C99.3347 57.1302 99.7668 57.0432 100.212 57.0421C100.66 57.0411 101.086 57.1299 101.49 57.3086C101.897 57.4899 102.248 57.7287 102.543 58.0248C102.84 58.3236 103.078 58.6746 103.256 59.0778C103.434 59.4837 103.524 59.8858 103.525 60.2842C103.526 60.6827 103.474 61.0552 103.371 61.4018C103.167 62.0872 102.784 62.6584 102.223 63.1155C101.664 63.5751 101.006 63.8059 100.248 63.8077C99.8026 63.8088 99.3766 63.729 98.97 63.5686C98.5633 63.4081 98.2021 63.1824 97.8863 62.8915C97.5731 62.6032 97.3222 62.2379 97.1337 61.7956C96.9451 61.356 96.8503 60.8913 96.8491 60.4018C96.8479 59.9122 96.9367 59.4627 97.1154 59.0535C97.2941 58.6442 97.5341 58.2933 97.8355 58.0009Z" fill="#FAFAFA"/>
<path d="M102.115 70.5834C102.108 70.6059 102.092 70.6242 102.066 70.6383L96.3884 73.5229L96.3807 73.5492L100.2 74.6704C100.38 74.7232 100.549 74.7064 100.708 74.6199C100.72 74.6128 100.739 74.5953 100.764 74.5672C100.788 74.5391 100.824 74.5321 100.872 74.546C100.919 74.5599 100.938 74.5831 100.929 74.6156L100.568 75.841C100.559 75.8735 100.531 75.8831 100.486 75.8699C100.444 75.8575 100.419 75.8435 100.413 75.8281C100.409 75.8159 100.404 75.7983 100.4 75.7754C100.398 75.7532 100.386 75.7211 100.363 75.6791C100.34 75.6371 100.293 75.5852 100.222 75.5236C100.15 75.4644 100.071 75.4223 99.9861 75.3974L94.7013 73.846C94.6088 73.8188 94.5563 73.7898 94.5436 73.759C94.5303 73.7306 94.5313 73.6902 94.5467 73.6377C94.5622 73.5853 94.5896 73.5472 94.6292 73.5235L101.015 70.2809L96.6261 68.9924C96.4337 68.9359 96.2664 68.9465 96.1241 69.0241C96.1111 69.0312 96.0924 69.0488 96.0679 69.0768C96.0433 69.1049 96.0073 69.112 95.9598 69.0981C95.9123 69.0841 95.8934 69.0609 95.9029 69.0284L96.258 67.8218C96.2675 67.7893 96.2936 67.7793 96.336 67.7918C96.381 67.805 96.4058 67.8177 96.4103 67.8299C96.4167 67.8453 96.4206 67.8641 96.4222 67.8863C96.4263 67.9092 96.4328 67.9287 96.4416 67.9449C96.5298 68.1065 96.6626 68.2133 96.84 68.2654L101.668 69.6826C101.852 69.7369 102.021 69.7225 102.173 69.6396C102.186 69.6325 102.205 69.615 102.229 69.5869C102.254 69.5588 102.29 69.5518 102.337 69.5657C102.385 69.5796 102.404 69.6028 102.394 69.6353L102.115 70.5834Z" fill="#FAFAFA"/>
<path d="M93.8484 75.0256C93.8637 74.9954 93.8911 74.9903 93.9306 75.0102C93.9724 75.0313 93.9945 75.0483 93.9967 75.0611C94.0002 75.0774 94.0007 75.0967 93.9982 75.1188C93.9981 75.1421 94.0049 75.1747 94.0187 75.2166C94.0337 75.2621 94.0712 75.3205 94.1315 75.3918C94.1941 75.4642 94.2649 75.5204 94.3439 75.5603L98.8349 77.8284C99.0046 77.9141 99.1735 77.9294 99.3415 77.8742C99.3555 77.8696 99.3771 77.8557 99.4063 77.8325C99.4356 77.8094 99.4723 77.809 99.5164 77.8313C99.5606 77.8536 99.5751 77.8798 99.5598 77.91L97.6898 81.6043C97.678 81.6276 97.6378 81.6321 97.5691 81.6178C97.5028 81.6047 97.4055 81.5921 97.2774 81.5799L96.9386 81.5488C96.8407 81.5402 96.7872 81.5336 96.7779 81.5289C96.7686 81.5242 96.7669 81.5015 96.773 81.4608C96.7778 81.4224 96.7832 81.3974 96.789 81.3858C96.7973 81.3695 96.8235 81.358 96.8679 81.3512C96.9133 81.3479 96.9746 81.3277 97.0516 81.2908C97.1275 81.2562 97.2325 81.1065 97.3666 80.8416L98.538 78.5274L96.8085 77.654L95.6953 79.8531C95.6095 80.0228 95.5941 80.1915 95.6493 80.3594C95.6538 80.3734 95.6677 80.395 95.6909 80.4242C95.714 80.4534 95.7145 80.49 95.6921 80.5342C95.6698 80.5783 95.6435 80.5928 95.6133 80.5775L94.6021 80.0668C94.5719 80.0516 94.5673 80.023 94.5885 79.9812C94.6085 79.9417 94.6255 79.9197 94.6395 79.9151C94.6547 79.914 94.6739 79.9135 94.6972 79.9136C94.7193 79.916 94.752 79.9091 94.7952 79.893C94.8395 79.8804 94.8968 79.8422 94.967 79.7785C95.036 79.7171 95.0905 79.6469 95.1305 79.5679L96.2437 77.3687L94.0016 76.2364C93.832 76.1507 93.6631 76.1355 93.4951 76.1906C93.4811 76.1952 93.4594 76.2091 93.4302 76.2323C93.401 76.2554 93.3643 76.2559 93.3201 76.2336C93.2759 76.2112 93.2615 76.185 93.2768 76.1548L93.8484 75.0256Z" fill="#FAFAFA"/>
<path d="M92.4494 89.0081C92.4337 89.0289 92.3933 89.0262 92.3282 89C92.2653 88.9754 92.1718 88.9458 92.0479 88.9111C92.0479 88.9111 91.9385 88.8809 91.7198 88.8205C91.6251 88.7947 91.5735 88.7787 91.5652 88.7725C91.5569 88.7662 91.5593 88.7436 91.5724 88.7045C91.584 88.6676 91.5929 88.645 91.5992 88.6367C91.6102 88.6221 91.6389 88.6144 91.6852 88.6135C91.7321 88.6162 91.7968 88.6062 91.8792 88.5835C91.96 88.5629 92.0891 88.4351 92.2664 88.2003L93.5916 86.4452L89.5324 83.3874C89.3805 83.273 89.217 83.2281 89.0419 83.2526C89.0273 83.2547 89.0035 83.2645 88.9707 83.2821C88.9378 83.2997 88.9016 83.2936 88.8621 83.2639C88.8225 83.2341 88.813 83.2057 88.8334 83.1787L89.596 82.1686C89.6164 82.1416 89.6443 82.1414 89.6796 82.1681C89.7171 82.1963 89.7358 82.2169 89.7357 82.2299C89.7362 82.2465 89.7333 82.2655 89.727 82.2869C89.7228 82.3098 89.7237 82.3431 89.7298 82.3868C89.7365 82.4342 89.7631 82.4983 89.8098 82.5791C89.8586 82.6615 89.9183 82.7293 89.989 82.7826L94.0482 85.8404L95.3734 84.0852C95.5946 83.7922 95.6781 83.5779 95.6237 83.4425C95.6041 83.382 95.598 83.3448 95.6053 83.3307C95.6147 83.3183 95.6364 83.3004 95.6703 83.277C95.7027 83.2558 95.723 83.2483 95.7314 83.2545C95.7397 83.2608 95.7692 83.3059 95.8201 83.3898L95.9975 83.68C96.0628 83.7879 96.1147 83.8661 96.1532 83.9146C96.1921 83.9668 96.2081 84.0082 96.2013 84.0389L92.4494 89.0081Z" fill="#FAFAFA"/>
<path d="M87.0482 93.4917C87.2132 93.4397 87.3336 93.3861 87.4095 93.3311C87.5234 93.2485 87.6094 93.1765 87.6677 93.1149C87.7275 93.0555 87.7644 93.0287 87.7784 93.0347C87.7924 93.0406 87.807 93.0541 87.8223 93.0752C87.8377 93.0962 87.8463 93.1237 87.8484 93.1576C87.8505 93.1915 87.8425 93.2182 87.8245 93.2377C87.5624 93.5371 87.1584 93.8847 86.6123 94.2807L83.1417 92.8406L83.1101 92.8636L83.4753 96.5553C82.9292 96.9513 82.4731 97.2273 82.1069 97.3835C82.0487 97.4096 81.995 97.389 81.946 97.3216C81.9185 97.2837 81.9423 97.2455 82.0174 97.2071C82.094 97.1709 82.1882 97.1122 82.3 97.0312C82.4117 96.9502 82.5132 96.8396 82.6045 96.6994L78.8635 92.8209C78.6702 92.6169 78.5014 92.5286 78.3571 92.556C78.3205 92.5633 78.2877 92.5469 78.2586 92.5068C78.2295 92.4668 78.2287 92.4369 78.2561 92.417L79.3092 91.6534C79.3366 91.6335 79.3633 91.6415 79.3893 91.6773C79.4169 91.7152 79.4287 91.7404 79.4249 91.7528C79.4205 91.7689 79.4129 91.7873 79.4021 91.8079C79.3642 91.8708 79.3611 91.9663 79.393 92.0944C79.4244 92.2261 79.453 92.3098 79.4791 92.3456C79.5066 92.3836 79.526 92.4081 79.5373 92.4192L82.7747 95.804L82.7905 95.7925L82.3686 91.9296C82.3672 91.9145 82.4032 91.882 82.4764 91.8321C82.5475 91.7838 82.5875 91.7612 82.5963 91.7645L86.209 93.3137L86.2375 93.2931L83.9742 89.2021C83.9357 89.127 83.8638 89.0569 83.7585 88.9917C83.6548 88.9286 83.581 88.8936 83.5374 88.8867C83.4937 88.8798 83.4536 88.8799 83.417 88.8872C83.3804 88.8944 83.3475 88.878 83.3184 88.838C83.2893 88.7979 83.2885 88.768 83.3159 88.7481L84.2804 88.0487C84.3079 88.0289 84.3346 88.0368 84.3606 88.0727C84.3882 88.1106 84.4 88.1357 84.3962 88.1482C84.3918 88.1643 84.3842 88.1826 84.3734 88.2033C84.305 88.3173 84.3394 88.4998 84.4768 88.7508L87.0482 93.4917Z" fill="#FAFAFA"/>
<path d="M79.9921 98.4686L78.8617 99.0377C78.8314 99.0529 78.8058 99.0396 78.7846 98.9977C78.7647 98.9582 78.7582 98.9309 78.7651 98.9157C78.7709 98.9041 78.7808 98.8889 78.7947 98.8702C78.8098 98.8539 78.8248 98.823 78.8398 98.7775C78.8536 98.7356 78.8569 98.6669 78.8496 98.5714C78.8434 98.4783 78.8204 98.3922 78.7805 98.3132L76.5141 93.8213C76.4285 93.6516 76.3017 93.5391 76.1337 93.4837C76.1197 93.479 76.0941 93.4774 76.0568 93.4786C76.0195 93.4799 75.9897 93.4585 75.9674 93.4143C75.9452 93.3701 75.9491 93.3404 75.9794 93.3252L77.1098 92.7561C77.1401 92.7409 77.1652 92.753 77.1851 92.7926C77.2062 92.8344 77.2139 92.8612 77.2081 92.8728C77.2012 92.888 77.1901 92.9037 77.1751 92.9201C77.1611 92.9387 77.1473 92.969 77.1334 93.011C77.1184 93.0564 77.114 93.1257 77.1202 93.2188C77.1275 93.3143 77.1511 93.4015 77.191 93.4806L79.4574 97.9724C79.543 98.1422 79.6698 98.2547 79.8378 98.3101C79.8518 98.3147 79.8774 98.3164 79.9147 98.3151C79.952 98.3139 79.9818 98.3353 80.0041 98.3795C80.0263 98.4237 80.0224 98.4534 79.9921 98.4686Z" fill="#FAFAFA"/>
<path d="M75.2318 100.616C75.2096 100.624 75.1853 100.621 75.159 100.607L69.5588 97.5742L69.5328 97.5827L70.7805 101.363C70.8392 101.541 70.9492 101.67 71.1104 101.752C71.1236 101.758 71.1487 101.764 71.1857 101.768C71.2228 101.772 71.2491 101.798 71.2646 101.845C71.2801 101.892 71.2718 101.921 71.2396 101.931L70.0264 102.331C69.9942 102.341 69.9708 102.324 69.9561 102.28C69.9422 102.238 69.9398 102.21 69.9489 102.196C69.9564 102.185 69.9684 102.172 69.9849 102.155C70.0022 102.141 70.0217 102.113 70.0432 102.07C70.0648 102.027 70.0806 101.959 70.0908 101.865C70.0985 101.772 70.0884 101.684 70.0607 101.6L68.3343 96.3694C68.3041 96.2779 68.2981 96.2182 68.3163 96.1902C68.3321 96.1631 68.3659 96.141 68.4179 96.1239C68.4698 96.1068 68.5167 96.1078 68.5587 96.1269L74.8558 99.5394L73.422 95.1956C73.3592 95.0052 73.2554 94.8735 73.1106 94.8006C73.0975 94.7939 73.0724 94.7885 73.0353 94.7842C72.9983 94.78 72.972 94.7544 72.9565 94.7074C72.941 94.6604 72.9493 94.6316 72.9814 94.621L74.1761 94.2276C74.2083 94.217 74.2313 94.2327 74.2452 94.2748C74.2599 94.3193 74.2635 94.3469 74.2561 94.3575C74.247 94.3715 74.2337 94.3855 74.2164 94.3994C74.1999 94.4158 74.1875 94.4322 74.1792 94.4487C74.0963 94.613 74.0839 94.783 74.1418 94.9586L75.7188 99.7363C75.7792 99.9193 75.8867 100.05 76.0413 100.128C76.0545 100.134 76.0796 100.14 76.1166 100.144C76.1537 100.148 76.18 100.174 76.1955 100.221C76.211 100.268 76.2027 100.297 76.1705 100.307L75.2318 100.616Z" fill="#FAFAFA"/>
<path d="M61.5609 103.457C61.535 103.46 61.509 103.429 61.4828 103.364C61.457 103.301 61.4137 103.213 61.3528 103.1C61.3528 103.1 61.2989 103 61.191 102.801C61.144 102.715 61.1198 102.666 61.1186 102.656C61.1174 102.646 61.1354 102.632 61.1726 102.614C61.2072 102.597 61.2297 102.588 61.2401 102.586C61.2582 102.584 61.2836 102.599 61.3164 102.632C61.3469 102.668 61.3989 102.708 61.4723 102.751C61.5432 102.795 61.7247 102.8 62.0169 102.765L64.2005 102.503L63.5953 97.4576C63.5726 97.2689 63.4918 97.1199 63.3528 97.0106C63.3412 97.0015 63.3177 96.9912 63.2822 96.9797C63.2467 96.9682 63.2261 96.9379 63.2202 96.8888C63.2143 96.8397 63.2281 96.8131 63.2618 96.8091L64.5184 96.6587C64.552 96.6547 64.5715 96.6746 64.5767 96.7186C64.5823 96.7651 64.5804 96.7929 64.571 96.8019C64.5593 96.8138 64.5436 96.8248 64.5238 96.8351C64.5044 96.8479 64.481 96.8717 64.4537 96.9064C64.4241 96.944 64.3963 97.0077 64.3704 97.0974C64.3447 97.1896 64.3372 97.2797 64.3477 97.3676L64.953 102.413L67.1366 102.152C67.5012 102.108 67.7135 102.02 67.7736 101.887C67.8036 101.831 67.8262 101.801 67.8414 101.796C67.8569 101.794 67.8849 101.798 67.9252 101.806C67.9629 101.815 67.9824 101.824 67.9837 101.834C67.9849 101.845 67.9729 101.897 67.9475 101.992L67.8611 102.321C67.8285 102.443 67.808 102.535 67.7996 102.596C67.789 102.66 67.7702 102.701 67.7433 102.717L61.5609 103.457Z" fill="#FAFAFA"/>
<circle cx="60" cy="60" r="59.5" stroke="#FAFAFA"/>
<circle cx="60" cy="60" r="20" stroke="#FAFAFA" stroke-opacity="0.07"/>
<defs>
<linearGradient id="paint0_linear_1_79" x1="60" y1="8" x2="60" y2="112" gradientUnits="userSpaceOnUse">
<stop stop-color="#60C3AE"/>
<stop offset="1" stop-color="#6E80A8"/>
</linearGradient>
</defs>
</svg>
