<svg width="52" height="52" viewBox="0 0 52 52" fill="none" xmlns="http://www.w3.org/2000/svg">
<g clip-path="url(#clip0_10_869)">
<path d="M19.968 39.208C32.227 39.208 38.935 29.042 38.935 20.241C38.935 19.955 38.935 19.669 38.922 19.383C40.222 18.447 41.353 17.264 42.25 15.925C41.054 16.458 39.767 16.809 38.415 16.978C39.793 16.159 40.846 14.846 41.353 13.286C40.066 14.053 38.636 14.599 37.115 14.898C35.893 13.598 34.164 12.792 32.253 12.792C28.574 12.792 25.584 15.782 25.584 19.461C25.584 19.981 25.649 20.488 25.753 20.982C20.215 20.709 15.301 18.044 12.012 14.014C11.44 15.002 11.115 16.146 11.115 17.368C11.115 19.682 12.298 21.723 14.079 22.919C12.987 22.88 11.96 22.581 11.063 22.087C11.063 22.113 11.063 22.139 11.063 22.178C11.063 25.402 13.364 28.106 16.406 28.717C15.847 28.873 15.262 28.951 14.651 28.951C14.222 28.951 13.806 28.912 13.403 28.834C14.248 31.486 16.718 33.41 19.63 33.462C17.342 35.256 14.469 36.322 11.349 36.322C10.816 36.322 10.283 36.296 9.76303 36.231C12.701 38.103 16.211 39.208 19.968 39.208Z" fill="#FAFAFA"/>
</g>
<defs>
<clipPath id="clip0_10_869">
<rect width="52" height="52" fill="white"/>
</clipPath>
</defs>
</svg>
